<?xml version="1.0" encoding="UTF-8"?>
<svg version="1.1" xmlns="http://www.w3.org/2000/svg" width="537" height="465">
<path d="M0 0 C6.75808046 3.4509347 12.91904068 7.26244147 18.99609375 11.80078125 C27.34475236 17.91299815 36.11798881 23.45851398 44.8125 29.0625 C45.70159058 29.6356897 45.70159058 29.6356897 46.60864258 30.22045898 C48.7067028 31.56540102 50.76916596 32.88458298 53 34 C53 34.66 53 35.32 53 36 C53.69480469 36.24878906 54.38960937 36.49757812 55.10546875 36.75390625 C58.43027003 38.18523096 61.27645487 39.96460581 64.3125 41.9375 C64.91932617 42.33155029 65.52615234 42.72560059 66.15136719 43.1315918 C71.41107302 46.56810281 76.58701096 50.12339081 81.75292969 53.69873047 C89.05151875 58.74555282 96.44076687 63.65361091 103.83349609 68.56103516 C107.18367238 70.78618042 110.52925219 73.01820415 113.875 75.25 C115.10153778 76.06774541 116.32809963 76.88545472 117.5546875 77.703125 C156.703125 103.80208333 195.8515625 129.90104167 235 156 C233.59813416 159.40479133 232.15916248 160.86051404 229.03515625 162.76953125 C227.8430957 163.50876831 227.8430957 163.50876831 226.62695312 164.26293945 C225.78068359 164.77429443 224.93441406 165.28564941 224.0625 165.8125 C222.32416426 166.88532838 220.58588268 167.95824452 218.84765625 169.03125 C218.0086377 169.54429687 217.16961914 170.05734375 216.30517578 170.5859375 C213.51636128 172.29667819 210.75505331 174.0479826 208 175.8125 C207.1646875 176.34488281 206.329375 176.87726563 205.46875 177.42578125 C204.6540625 177.94527344 203.839375 178.46476563 203 179 C200.26262528 180.74232328 197.5249634 182.48415991 194.78515625 184.22265625 C192.82867718 185.47118076 190.87869642 186.72991864 188.93359375 187.99609375 C187.94488281 188.63675781 186.95617187 189.27742187 185.9375 189.9375 C184.58978516 190.81728516 184.58978516 190.81728516 183.21484375 191.71484375 C181 193 181 193 179 193 C178.67 210.16 178.34 227.32 178 245 C173.34707106 244.06941421 171.76775633 243.44917808 168.0625 240.875 C167.01707031 240.15699219 165.97164062 239.43898437 164.89453125 238.69921875 C163.99081787 238.07152588 163.99081787 238.07152588 163.06884766 237.43115234 C160.68346277 235.78103125 158.28586478 234.14957936 155.88671875 232.51953125 C141.72571895 222.89538153 141.72571895 222.89538153 134.7265625 218.04296875 C122.70481566 209.71099075 110.5553508 201.51013005 98 194 C98.00113916 194.81717152 98.00113916 194.81717152 98.00230134 195.65085155 C98.04702789 227.9171724 98.08135814 260.18348506 98.10213066 292.44982975 C98.10463216 296.3214523 98.1072208 300.1930748 98.10986328 304.06469727 C98.1103879 304.83548895 98.11091252 305.60628063 98.11145304 306.40042963 C98.12016289 318.89174179 98.13593604 331.38303561 98.15430559 343.87433688 C98.17298854 356.6853008 98.18411332 369.49625509 98.18817699 382.30723208 C98.19092539 390.21646878 98.19961545 398.12565361 98.21583293 406.03487434 C98.22762428 412.09296177 98.22891541 418.1510043 98.22621536 424.20910454 C98.22676765 426.69924871 98.23077309 429.18939476 98.23841095 431.67952728 C98.24829824 435.06794469 98.24599165 438.45613655 98.24050903 441.84455872 C98.24633472 442.83968485 98.2521604 443.83481099 98.25816262 444.86009246 C98.25418052 445.76478167 98.25019842 446.66947087 98.24609566 447.6015749 C98.24723482 448.7754803 98.24723482 448.7754803 98.24839699 449.97310096 C98 452 98 452 96 455 C92.92540461 455.2913359 90.05267387 455.38833602 86.97631836 455.35644531 C85.57377556 455.35951187 85.57377556 455.35951187 84.14289856 455.36264038 C81.04168359 455.36565691 77.94099582 455.34714636 74.83984375 455.328125 C72.69275545 455.32506905 70.54566517 455.32319168 68.39857483 455.32244873 C63.89511551 455.31784031 59.39183448 455.30339278 54.88842773 455.28125 C49.10194057 455.25295024 43.31559394 455.24203748 37.52904415 455.2375679 C33.09483928 455.23342063 28.66066312 455.22360926 24.22647285 455.21169281 C22.0921203 455.20597665 19.95776496 455.20122243 17.82340813 455.19742584 C14.84698453 455.19058724 11.8706747 455.1769668 8.89428711 455.16113281 C7.55788681 455.15945602 7.55788681 455.15945602 6.19448853 455.15774536 C0.11468571 455.11468571 0.11468571 455.11468571 -1 454 C-1.10568044 451.59864078 -1.14575235 449.22568453 -1.14425182 446.82348728 C-1.14769323 446.05978772 -1.15113465 445.29608817 -1.15468034 444.5092462 C-1.16511256 441.9173358 -1.16834644 439.32546435 -1.17167664 436.73353577 C-1.17766839 434.86968693 -1.18409302 433.00583944 -1.19091636 431.14199346 C-1.20845858 425.99460832 -1.21969412 420.84722529 -1.22992671 415.69982111 C-1.24200166 410.15849763 -1.25977707 404.61719206 -1.27679443 399.07588196 C-1.30917455 388.21003268 -1.33597167 377.34417644 -1.36059722 366.47830708 C-1.38062378 357.65111169 -1.40221967 348.82392157 -1.42493629 339.99673271 C-1.47863365 319.07151116 -1.53109983 298.14628785 -1.57690716 277.2210474 C-1.57837444 276.55131102 -1.57984172 275.88157463 -1.58135347 275.19154321 C-1.5887868 271.79674971 -1.59620432 268.40195618 -1.60361841 265.00716264 C-1.6050914 264.33289864 -1.60656439 263.65863465 -1.60808203 262.96393841 C-1.61106068 261.6004115 -1.61403797 260.23688458 -1.6170139 258.87335766 C-1.66338744 237.65260891 -1.71789097 216.43189415 -1.77856445 195.21118164 C-1.84666407 171.39093752 -1.90801121 147.5706889 -1.95981437 123.75040239 C-1.98741453 111.13006769 -2.01813705 98.509758 -2.05682945 85.88945198 C-2.0897092 75.1458914 -2.11572892 64.40234192 -2.13268574 53.65874393 C-2.14154584 48.17201261 -2.15370564 42.68533912 -2.17449379 37.19863892 C-2.19341521 32.18329914 -2.20321741 27.1680303 -2.20551727 22.15265613 C-2.20799771 20.33098541 -2.21391948 18.50931572 -2.22349032 16.68766845 C-2.23593359 14.22580428 -2.2362282 11.76424033 -2.2332716 9.30235386 C-2.23984412 8.58272959 -2.24641665 7.86310533 -2.25318834 7.12167427 C-2.22829615 2.22829615 -2.22829615 2.22829615 0 0 Z " fill="#0C449D" transform="translate(5,3)"/>
<path d="M0 0 C1.32 0 2.64 0 4 0 C5.4880647 2.9761294 5.1296896 6.00581768 5.11301708 9.26832581 C5.11308175 10.02980246 5.11314641 10.79127911 5.11321303 11.57583082 C5.1121814 14.15417944 5.1039233 16.73245583 5.0957489 19.31079102 C5.09348862 21.16725144 5.09166389 23.02371243 5.09023982 24.88017368 C5.08500329 30.00251663 5.07343001 35.12482908 5.06084073 40.24715853 C5.04835124 45.76322689 5.04160214 51.27930267 5.03408813 56.79537964 C5.01836361 67.60964257 4.99702844 78.42388752 4.97351011 89.23813605 C4.95442754 98.02334848 4.93693334 106.80856261 4.92057228 115.59378052 C4.88163121 136.42212067 4.84146632 157.25045712 4.7946043 178.07878113 C4.79310586 178.74528578 4.79160742 179.41179042 4.79006358 180.09849218 C4.78246408 183.47686181 4.77484847 186.85523139 4.76722922 190.23360097 C4.76571634 190.90459675 4.76420345 191.57559252 4.76264472 192.26692151 C4.75958519 193.62383858 4.7565243 194.98075566 4.75346206 196.33767273 C4.70585749 217.4578528 4.66637323 238.57803491 4.63305664 259.69824219 C4.59564802 283.40829069 4.55151976 307.11831529 4.49788028 330.82833385 C4.46961593 343.38938783 4.44445486 355.95043072 4.4272213 368.51150513 C4.41249242 379.20383815 4.39093176 389.89612978 4.36034616 400.58842969 C4.34492576 406.04881694 4.33279013 411.50916118 4.32924461 416.96957016 C4.32592313 421.96085241 4.31352275 426.95202371 4.29365287 431.94326675 C4.2880736 433.75614377 4.28592019 435.56903498 4.28739997 437.38191998 C4.28891071 439.8319709 4.27832736 442.28166913 4.26450634 444.73167419 C4.26787017 445.44780392 4.27123401 446.16393365 4.27469978 446.90176427 C4.22829624 451.77170376 4.22829624 451.77170376 2 454 C-1.0023537 454.19889816 -3.91250098 454.27263848 -6.91601562 454.25878906 C-8.30151863 454.26404602 -8.30151863 454.26404602 -9.7150116 454.26940918 C-12.7788334 454.27823676 -15.8424257 454.27237371 -18.90625 454.265625 C-21.02852422 454.26697135 -23.15079813 454.26891164 -25.27307129 454.27142334 C-29.72520885 454.274376 -34.17726627 454.2700724 -38.62939453 454.26074219 C-44.34631987 454.24934761 -50.06305745 454.25590632 -55.77997589 454.26788712 C-60.16360905 454.27510188 -64.54719743 454.27281955 -68.93083191 454.26763153 C-71.03924074 454.26629397 -73.1476536 454.26794644 -75.25605774 454.27259064 C-78.19881006 454.27764956 -81.14125504 454.26995454 -84.08398438 454.25878906 C-84.96197189 454.26283752 -85.83995941 454.26688599 -86.74455261 454.27105713 C-92.77147234 454.22852766 -92.77147234 454.22852766 -95 452 C-95.24839699 450.09088743 -95.24839699 450.09088743 -95.24609566 447.70900536 C-95.2520688 446.34973303 -95.2520688 446.34973303 -95.25816262 444.96300066 C-95.25233693 443.96107073 -95.24651125 442.9591408 -95.24050903 441.92684937 C-95.24221788 440.86750045 -95.24392673 439.80815154 -95.24568737 438.71670115 C-95.2489989 435.14358624 -95.23795121 431.5706564 -95.22705078 427.99755859 C-95.22648703 425.44557194 -95.22680253 422.89358497 -95.22793579 420.34159851 C-95.2283922 414.83530673 -95.22269528 409.32907525 -95.21146011 403.82279587 C-95.1952264 395.86159086 -95.1899993 387.90040879 -95.18748413 379.93918903 C-95.18310368 367.02357399 -95.16978509 354.10798416 -95.15087891 341.19238281 C-95.13252916 328.64388149 -95.11836823 316.09538702 -95.10986328 303.546875 C-95.10933783 302.77376859 -95.10881239 302.00066218 -95.10827102 301.20412831 C-95.105661 297.32579517 -95.10313357 293.44746198 -95.10064721 289.56912875 C-95.0799038 257.37940084 -95.04466876 225.18970391 -95 193 C-96.6101858 193.96157169 -98.21980326 194.92409514 -99.82917786 195.88702393 C-100.725594 196.42292774 -101.62201014 196.95883156 -102.5455904 197.51097488 C-105.03820679 199.02317905 -107.44953427 200.60562277 -109.82421875 202.296875 C-110.61844238 202.85874512 -111.41266602 203.42061523 -112.23095703 203.99951172 C-113.04161621 204.57717285 -113.85227539 205.15483398 -114.6875 205.75 C-120.96423247 210.17876048 -127.2503771 214.58792217 -133.625 218.875 C-134.24592529 219.29749023 -134.86685059 219.71998047 -135.5065918 220.15527344 C-139.76340969 223 -139.76340969 223 -142 223 C-142 223.66 -142 224.32 -142 225 C-143.44140625 226.15625 -143.44140625 226.15625 -145.5625 227.5 C-146.77679688 228.28310547 -146.77679688 228.28310547 -148.015625 229.08203125 C-149.49289062 230.03142578 -149.49289062 230.03142578 -151 231 C-153.61027163 232.72002723 -156.21140077 234.45364447 -158.8125 236.1875 C-159.45840088 236.61546875 -160.10430176 237.0434375 -160.76977539 237.484375 C-161.38844482 237.89558594 -162.00711426 238.30679688 -162.64453125 238.73046875 C-163.23314941 239.11895996 -163.82176758 239.50745117 -164.42822266 239.90771484 C-166.14758039 241.05998028 -166.14758039 241.05998028 -168.13671875 242.86328125 C-170.71113171 244.43383507 -172.15586749 243.68139157 -175 243 C-174.98889694 242.4097554 -174.97779388 241.8195108 -174.96635437 241.21138 C-174.8556634 235.06335597 -174.78029255 228.91561533 -174.7253418 222.7668457 C-174.70021072 220.47278342 -174.66610031 218.1788011 -174.62280273 215.88500977 C-174.56209168 212.58589951 -174.53377563 209.28784854 -174.51171875 205.98828125 C-174.48591232 204.96414627 -174.4601059 203.94001129 -174.43351746 202.88484192 C-174.41001587 197.00275576 -174.41001587 197.00275576 -177.27368164 191.98095703 C-180.62000247 189.53839479 -180.62000247 189.53839479 -184.109375 187.31640625 C-184.86476563 186.86330078 -185.62015625 186.41019531 -186.3984375 185.94335938 C-187.17445313 185.48767578 -187.95046875 185.03199219 -188.75 184.5625 C-194.95772502 180.87469047 -201.01988522 177.04685459 -207 173 C-208.54629118 171.96397186 -210.09316966 170.92881975 -211.640625 169.89453125 C-213.96152866 168.34267279 -216.28239792 166.79078478 -218.6015625 165.23632812 C-219.35695313 164.73166016 -220.11234375 164.22699219 -220.890625 163.70703125 C-221.60154297 163.22959473 -222.31246094 162.7521582 -223.04492188 162.26025391 C-225.14034658 160.87009075 -225.14034658 160.87009075 -228.046875 159.38671875 C-229.01367188 158.70029297 -229.01367188 158.70029297 -230 158 C-230 156.68 -230 155.36 -230 154 C-228.12670898 152.32763672 -228.12670898 152.32763672 -225.49609375 150.6796875 C-224.53469482 150.06673828 -223.5732959 149.45378906 -222.58276367 148.82226562 C-221.54482666 148.17966797 -220.50688965 147.53707031 -219.4375 146.875 C-217.31735285 145.5292057 -215.19756143 144.18285082 -213.078125 142.8359375 C-212.03720703 142.18077148 -210.99628906 141.52560547 -209.92382812 140.85058594 C-206.14036886 138.45591149 -202.40635164 135.99341656 -198.6875 133.5 C-198.09670654 133.10683594 -197.50591309 132.71367187 -196.8972168 132.30859375 C-192.50308831 129.37374914 -188.20432645 126.31747905 -183.953125 123.1796875 C-182 122 -182 122 -179 122 C-179 121.34 -179 120.68 -179 120 C-177.6105957 118.88671875 -177.6105957 118.88671875 -175.67578125 117.6875 C-174.97646484 117.25179687 -174.27714844 116.81609375 -173.55664062 116.3671875 C-172.81607422 115.91601562 -172.07550781 115.46484375 -171.3125 115 C-170.59126953 114.54882812 -169.87003906 114.09765625 -169.12695312 113.6328125 C-165.5113361 111.40070555 -162.03535691 109.40083396 -158 108 C-158 107.34 -158 106.68 -158 106 C-155.79881339 104.43027693 -153.60780103 102.98187197 -151.3125 101.5625 C-150.68666016 101.16740234 -150.06082031 100.77230469 -149.41601562 100.36523438 C-147.61694628 99.23304518 -145.80925997 98.11580463 -144 97 C-143.06542969 96.41089844 -142.13085938 95.82179688 -141.16796875 95.21484375 C-139 94 -139 94 -137 94 C-137 93.34 -137 92.68 -137 92 C-135.1565533 90.67395766 -133.2443139 89.44364111 -131.3125 88.25 C-130.02358732 87.44193921 -128.73590463 86.63191437 -127.44921875 85.8203125 C-126.73942871 85.37333008 -126.02963867 84.92634766 -125.29833984 84.46582031 C-121.03391834 81.74608516 -116.83103846 78.93385842 -112.625 76.125 C-111.72265625 75.52284668 -110.8203125 74.92069336 -109.890625 74.30029297 C-103.85395449 70.26245527 -97.8571614 66.17054469 -91.8828125 62.04125977 C-84.73607348 57.10982937 -77.50280531 52.30977723 -70.26904297 47.50732422 C-66.57198214 45.05136838 -62.87996058 42.58786427 -59.1875 40.125 C-57.69533775 39.13017046 -56.20314983 38.13537942 -54.7109375 37.140625 C-53.56963379 36.37975586 -53.56963379 36.37975586 -52.40527344 35.60351562 C-49.84570312 33.89713542 -47.28613281 32.19075521 -44.7265625 30.484375 C-43.38682373 29.59105469 -43.38682373 29.59105469 -42.02001953 28.6796875 C-40.22973073 27.48637688 -38.43904708 26.29365842 -36.64794922 25.1015625 C-32.5578596 22.37839778 -28.47329004 19.64812073 -24.40625 16.890625 C-23.36150513 16.18510498 -23.36150513 16.18510498 -22.2956543 15.46533203 C-21.00808057 14.59511416 -19.72293271 13.72129213 -18.44067383 12.84326172 C-14.22415661 10 -14.22415661 10 -12 10 C-12 9.34 -12 8.68 -12 8 C-10.23596271 6.74163402 -8.41220501 5.5661735 -6.5625 4.4375 C-3.09563564 2.46466077 -3.09563564 2.46466077 0 0 Z " fill="#0D459E" transform="translate(530,4)"/>
<path d="M0 0 C5.57044312 2.38733276 10.27990903 5.50631606 15.19140625 9.02734375 C18.26368666 11.18520412 21.3986929 13.23037769 24.5625 15.25 C25.1392749 15.61834961 25.7160498 15.98669922 26.31030273 16.36621094 C27.53843609 17.15011879 28.76671281 17.93380207 29.99511719 18.71728516 C33.73495139 21.11001396 37.46062272 23.52465969 41.1875 25.9375 C41.918479 26.41026367 42.64945801 26.88302734 43.40258789 27.37011719 C46.27917858 29.2317388 49.14894649 31.09929766 52 33 C53.28298483 39.40485077 53.12727661 45.84876939 53.0546875 52.359375 C53.04293488 53.42617493 53.03118225 54.49297485 53.01907349 55.59210205 C52.99047979 57.83439767 52.95834468 60.07665064 52.92285156 62.31884766 C52.8908524 64.61331844 52.86975959 66.90796631 52.859375 69.20263672 C52.84418246 72.52647861 52.79687953 75.84847639 52.7421875 79.171875 C52.74298309 80.19794861 52.74377869 81.22402222 52.74459839 82.28118896 C52.7217276 83.23608215 52.69885681 84.19097534 52.67529297 85.17480469 C52.66561493 86.01227234 52.65593689 86.84973999 52.64596558 87.71258545 C51.68294796 91.12270602 49.92423021 92.04485499 47 94 C45.69604662 94.72520104 44.3871076 95.44148201 43.07434082 96.15060425 C35.37440261 100.27639358 35.37440261 100.27639358 30.08480835 106.94113922 C28.68809943 112.34533847 29.01522896 117.85201279 29.21875 123.3828125 C29.22631933 125.18606005 29.22674235 126.98934989 29.22050476 128.79260254 C29.22289755 133.58656937 29.32138498 138.37403936 29.43841171 143.16638947 C29.54123514 148.10587552 29.55049182 153.04544405 29.56762695 157.98583984 C29.60978611 166.7004262 29.72076752 175.41213265 29.87068081 184.12547874 C30.06659787 195.60361163 30.1385521 207.08121859 30.16845703 218.56097412 C30.18708741 221.5586146 30.23841349 224.55417214 30.296875 227.55126953 C30.31682666 229.31802916 30.33638796 231.08479325 30.35546875 232.8515625 C30.39132332 234.00622009 30.39132332 234.00622009 30.42790222 235.1842041 C30.44549403 238.81274258 30.12237129 240.80834579 28.1496582 243.89794922 C25.61719393 246.37432825 23.13239586 247.84344449 20 249.5 C13.74553434 252.90837516 7.76782258 256.65663173 1.8125 260.5625 C0.95325928 261.12493408 0.09401855 261.68736816 -0.79125977 262.2668457 C-3.19540646 263.84269434 -5.59776543 265.42123885 -8 267 C-10.14117449 268.40341229 -12.28696929 269.7983734 -14.4375 271.1875 C-15.21996094 271.69667969 -16.00242188 272.20585937 -16.80859375 272.73046875 C-20.19495381 274.69226379 -22.80171704 276.13616852 -26.75 275.6875 C-29 275 -29 275 -30 274 C-30.33742909 269.92522342 -30.32510389 265.83694506 -30.375 261.75 C-30.41238281 260.60402344 -30.44976562 259.45804687 -30.48828125 258.27734375 C-30.57730758 249.78027476 -30.57730758 249.78027476 -27.64453125 245.81640625 C-20.63225806 241 -20.63225806 241 -18 241 C-18 240.34 -18 239.68 -18 239 C-16.1015625 237.4921875 -16.1015625 237.4921875 -13.625 235.875 C-12.81289063 235.33617187 -12.00078125 234.79734375 -11.1640625 234.2421875 C-9 233 -9 233 -7 233 C-6.72414063 232.44828125 -6.44828125 231.8965625 -6.1640625 231.328125 C-3.08203125 225.1640625 -3.08203125 225.1640625 0 219 C-4.92310189 221.29825395 -9.69309895 223.78398165 -14.34375 226.59375 C-15.10051025 227.05023926 -15.85727051 227.50672852 -16.63696289 227.97705078 C-18.16242902 228.90401874 -19.68256024 229.83982743 -21.19702148 230.78466797 C-21.90415283 231.21408691 -22.61128418 231.64350586 -23.33984375 232.0859375 C-24.28911743 232.6744751 -24.28911743 232.6744751 -25.25756836 233.27490234 C-27 234 -27 234 -30 233 C-30.07420211 228.92497206 -30.1286257 224.85020608 -30.16479492 220.7746582 C-30.17987397 219.38852081 -30.2003405 218.00243106 -30.22631836 216.61645508 C-30.26273716 214.62341854 -30.27813018 212.63003277 -30.29296875 210.63671875 C-30.3086792 209.43748779 -30.32438965 208.23825684 -30.34057617 207.00268555 C-30 204 -30 204 -28.60668945 202.08520508 C-27 201 -27 201 -25 201 C-25 200.34 -25 199.68 -25 199 C-23.59472656 197.91845703 -23.59472656 197.91845703 -21.640625 196.7578125 C-20.93679687 196.33113281 -20.23296875 195.90445313 -19.5078125 195.46484375 C-18.76273438 195.02269531 -18.01765625 194.58054687 -17.25 194.125 C-10.56347833 190.14380247 -5.68049605 186.99215833 -2.25 179.75 C-1.82203125 178.85796875 -1.3940625 177.9659375 -0.953125 177.046875 C-0.48132813 176.03367187 -0.48132813 176.03367187 0 175 C-5.35040485 177.58700894 -10.66657382 180.17203703 -15.7734375 183.21484375 C-16.39460449 183.58351563 -17.01577148 183.9521875 -17.65576172 184.33203125 C-18.86959101 185.05962181 -20.07721434 185.79768428 -21.27783203 186.546875 C-25.52610454 189.08872329 -25.52610454 189.08872329 -28.18945312 188.59008789 C-28.78693359 188.39535889 -29.38441406 188.20062988 -30 188 C-30.14532035 183.43783535 -30.23408477 178.87626638 -30.3125 174.3125 C-30.35439453 173.01892578 -30.39628906 171.72535156 -30.43945312 170.39257812 C-30.45556641 169.14541016 -30.47167969 167.89824219 -30.48828125 166.61328125 C-30.52755737 164.89298706 -30.52755737 164.89298706 -30.56762695 163.13793945 C-29.57589222 157.65545924 -25.21093533 154.96394429 -20.86328125 151.88671875 C-19.75049805 151.0987793 -19.75049805 151.0987793 -18.61523438 150.29492188 C-17.47538086 149.49924805 -17.47538086 149.49924805 -16.3125 148.6875 C-15.54099609 148.13771484 -14.76949219 147.58792969 -13.97460938 147.02148438 C-8.25460986 143 -8.25460986 143 -6 143 C-5.7525 142.319375 -5.505 141.63875 -5.25 140.9375 C-3.75892022 137.43346252 -1.90943716 134.29494339 0 131 C-1.72760417 131.86380209 -3.45517891 132.72766308 -5.18261719 133.59179688 C-6.6488942 134.32460882 -8.11569512 135.05637338 -9.58300781 135.78710938 C-12.78470107 137.38299544 -15.97741996 138.98820571 -19.1484375 140.64453125 C-20.00695312 141.09183594 -20.86546875 141.53914062 -21.75 142 C-22.85601562 142.5878125 -22.85601562 142.5878125 -23.984375 143.1875 C-26 144 -26 144 -30 144 C-30 130.8 -30 117.6 -30 104 C-31.32 103.34 -32.64 102.68 -34 102 C-35.66234472 100.87825519 -37.30732315 99.73050036 -38.9375 98.5625 C-41.48297543 96.74093103 -43.99899025 95.0005994 -46.69140625 93.40234375 C-49 92 -49 92 -51 90 C-51.29193115 87.82574463 -51.29193115 87.82574463 -51.35058594 85.09472656 C-51.39007355 83.56238373 -51.39007355 83.56238373 -51.43035889 81.99908447 C-51.4481842 80.89079285 -51.46600952 79.78250122 -51.484375 78.640625 C-51.5084845 77.5034906 -51.53259399 76.3663562 -51.55743408 75.19476318 C-51.60580903 72.78390604 -51.64918346 70.37294424 -51.68798828 67.96191406 C-51.74951844 64.27882518 -51.83263648 60.59666771 -51.91796875 56.9140625 C-51.9622467 54.57294106 -52.00525658 52.23179523 -52.046875 49.890625 C-52.07279724 48.7904303 -52.09871948 47.6902356 -52.12542725 46.55670166 C-52.26052794 36.37058529 -52.26052794 36.37058529 -50 32 C-48.02319336 30.20825195 -48.02319336 30.20825195 -45.58984375 28.73828125 C-44.69031982 28.18205078 -43.7907959 27.62582031 -42.86401367 27.05273438 C-41.89826416 26.47845703 -40.93251465 25.90417969 -39.9375 25.3125 C-37.93188493 24.08008875 -35.92668108 22.84700807 -33.921875 21.61328125 C-32.92220703 21.00564941 -31.92253906 20.39801758 -30.89257812 19.77197266 C-26.77803486 17.2514329 -22.72968794 14.63446767 -18.6875 12 C-17.9970459 11.55261475 -17.3065918 11.10522949 -16.59521484 10.64428711 C-12.22522645 7.81069802 -7.87916569 4.94362295 -3.56640625 2.0234375 C-2 1 -2 1 0 0 Z " fill="#0D459D" transform="translate(269,182)"/>
<path d="M0 0 C1.32 0 2.64 0 4 0 C5.4880647 2.9761294 5.1296896 6.00581768 5.11301708 9.26832581 C5.11308175 10.02980246 5.11314641 10.79127911 5.11321303 11.57583082 C5.1121814 14.15417944 5.1039233 16.73245583 5.0957489 19.31079102 C5.09348862 21.16725144 5.09166389 23.02371243 5.09023982 24.88017368 C5.08500329 30.00251663 5.07343001 35.12482908 5.06084073 40.24715853 C5.04835124 45.76322689 5.04160214 51.27930267 5.03408813 56.79537964 C5.01836361 67.60964257 4.99702844 78.42388752 4.97351011 89.23813605 C4.95442754 98.02334848 4.93693334 106.80856261 4.92057228 115.59378052 C4.88163121 136.42212067 4.84146632 157.25045712 4.7946043 178.07878113 C4.79310586 178.74528578 4.79160742 179.41179042 4.79006358 180.09849218 C4.78246408 183.47686181 4.77484847 186.85523139 4.76722922 190.23360097 C4.76571634 190.90459675 4.76420345 191.57559252 4.76264472 192.26692151 C4.75958519 193.62383858 4.7565243 194.98075566 4.75346206 196.33767273 C4.70585749 217.4578528 4.66637323 238.57803491 4.63305664 259.69824219 C4.59564802 283.40829069 4.55151976 307.11831529 4.49788028 330.82833385 C4.46961593 343.38938783 4.44445486 355.95043072 4.4272213 368.51150513 C4.41249242 379.20383815 4.39093176 389.89612978 4.36034616 400.58842969 C4.34492576 406.04881694 4.33279013 411.50916118 4.32924461 416.96957016 C4.32592313 421.96085241 4.31352275 426.95202371 4.29365287 431.94326675 C4.2880736 433.75614377 4.28592019 435.56903498 4.28739997 437.38191998 C4.28891071 439.8319709 4.27832736 442.28166913 4.26450634 444.73167419 C4.26787017 445.44780392 4.27123401 446.16393365 4.27469978 446.90176427 C4.22829624 451.77170376 4.22829624 451.77170376 2 454 C-1.0023537 454.19889816 -3.91250098 454.27263848 -6.91601562 454.25878906 C-7.8396843 454.2622937 -8.76335297 454.26579834 -9.7150116 454.26940918 C-12.7788334 454.27823676 -15.8424257 454.27237371 -18.90625 454.265625 C-21.02852422 454.26697135 -23.15079813 454.26891164 -25.27307129 454.27142334 C-29.72520885 454.274376 -34.17726627 454.2700724 -38.62939453 454.26074219 C-44.34631987 454.24934761 -50.06305745 454.25590632 -55.77997589 454.26788712 C-60.16360905 454.27510188 -64.54719743 454.27281955 -68.93083191 454.26763153 C-71.03924074 454.26629397 -73.1476536 454.26794644 -75.25605774 454.27259064 C-78.19881006 454.27764956 -81.14125504 454.26995454 -84.08398438 454.25878906 C-84.96197189 454.26283752 -85.83995941 454.26688599 -86.74455261 454.27105713 C-92.77147234 454.22852766 -92.77147234 454.22852766 -95 452 C-95.24839699 450.09088743 -95.24839699 450.09088743 -95.24609566 447.70900536 C-95.2520688 446.34973303 -95.2520688 446.34973303 -95.25816262 444.96300066 C-95.25233693 443.96107073 -95.24651125 442.9591408 -95.24050903 441.92684937 C-95.24221788 440.86750045 -95.24392673 439.80815154 -95.24568737 438.71670115 C-95.2489989 435.14358624 -95.23795121 431.5706564 -95.22705078 427.99755859 C-95.22648703 425.44557194 -95.22680253 422.89358497 -95.22793579 420.34159851 C-95.2283922 414.83530673 -95.22269528 409.32907525 -95.21146011 403.82279587 C-95.1952264 395.86159086 -95.1899993 387.90040879 -95.18748413 379.93918903 C-95.18310368 367.02357399 -95.16978509 354.10798416 -95.15087891 341.19238281 C-95.13252916 328.64388149 -95.11836823 316.09538702 -95.10986328 303.546875 C-95.10933783 302.77376859 -95.10881239 302.00066218 -95.10827102 301.20412831 C-95.105661 297.32579517 -95.10313357 293.44746198 -95.10064721 289.56912875 C-95.0799038 257.37940084 -95.04466876 225.18970391 -95 193 C-95.66 192.67 -96.32 192.34 -97 192 C-93.25 190.875 -93.25 190.875 -91 192 C-91.33 277.47 -91.66 362.94 -92 451 C-61.31 450.67 -30.62 450.34 1 450 C0.99476318 440.00154785 0.98952637 430.0030957 0.98413086 419.70166016 C0.96788856 387.26349263 0.95687675 354.82532507 0.94893467 322.3871545 C0.9476848 317.30107174 0.94639039 312.21498899 0.94506836 307.12890625 C0.94480605 306.11686935 0.94454374 305.10483244 0.94427348 304.06212775 C0.94051512 289.9163667 0.93436836 275.77060849 0.92626567 261.62484929 C0.91230187 237.24208745 0.90306148 212.85932859 0.90234375 188.4765625 C0.90230518 187.52900105 0.90226661 186.5814396 0.90222687 185.60516417 C0.90058698 125.39828019 1.10016246 65.20136487 2 5 C0.35 5.33 -1.3 5.66 -3 6 C-1.125 1.125 -1.125 1.125 0 0 Z " fill="#3B639D" transform="translate(530,4)"/>
<path d="M0 0 C11.70615034 5.96583144 11.70615034 5.96583144 16 11 C13.03 10.505 13.03 10.505 10 10 C10 9.01 10 8.02 10 7 C7.69 6.67 5.38 6.34 3 6 C2.67 9.96 2.34 13.92 2 18 C1.67 18 1.34 18 1 18 C0.67 161.55 0.34 305.1 0 453 C31.68 453 63.36 453 96 453 C96 366.87 96 280.74 96 192 C97.65 192.33 99.3 192.66 101 193 C101.33 193.66 101.66 194.32 102 195 C100.68 194.67 99.36 194.34 98 194 C98.00113916 194.81717152 98.00113916 194.81717152 98.00230134 195.65085155 C98.04702789 227.9171724 98.08135814 260.18348506 98.10213066 292.44982975 C98.10463216 296.3214523 98.1072208 300.1930748 98.10986328 304.06469727 C98.1103879 304.83548895 98.11091252 305.60628063 98.11145304 306.40042963 C98.12016289 318.89174179 98.13593604 331.38303561 98.15430559 343.87433688 C98.17298854 356.6853008 98.18411332 369.49625509 98.18817699 382.30723208 C98.19092539 390.21646878 98.19961545 398.12565361 98.21583293 406.03487434 C98.22762428 412.09296177 98.22891541 418.1510043 98.22621536 424.20910454 C98.22676765 426.69924871 98.23077309 429.18939476 98.23841095 431.67952728 C98.24829824 435.06794469 98.24599165 438.45613655 98.24050903 441.84455872 C98.24633472 442.83968485 98.2521604 443.83481099 98.25816262 444.86009246 C98.25418052 445.76478167 98.25019842 446.66947087 98.24609566 447.6015749 C98.24723482 448.7754803 98.24723482 448.7754803 98.24839699 449.97310096 C98 452 98 452 96 455 C92.92540461 455.2913359 90.05267387 455.38833602 86.97631836 455.35644531 C85.57377556 455.35951187 85.57377556 455.35951187 84.14289856 455.36264038 C81.04168359 455.36565691 77.94099582 455.34714636 74.83984375 455.328125 C72.69275545 455.32506905 70.54566517 455.32319168 68.39857483 455.32244873 C63.89511551 455.31784031 59.39183448 455.30339278 54.88842773 455.28125 C49.10194057 455.25295024 43.31559394 455.24203748 37.52904415 455.2375679 C33.09483928 455.23342063 28.66066312 455.22360926 24.22647285 455.21169281 C22.0921203 455.20597665 19.95776496 455.20122243 17.82340813 455.19742584 C14.84698453 455.19058724 11.8706747 455.1769668 8.89428711 455.16113281 C7.55788681 455.15945602 7.55788681 455.15945602 6.19448853 455.15774536 C0.11468571 455.11468571 0.11468571 455.11468571 -1 454 C-1.10568044 451.59864078 -1.14575235 449.22568453 -1.14425182 446.82348728 C-1.14769323 446.05978772 -1.15113465 445.29608817 -1.15468034 444.5092462 C-1.16511256 441.9173358 -1.16834644 439.32546435 -1.17167664 436.73353577 C-1.17766839 434.86968693 -1.18409302 433.00583944 -1.19091636 431.14199346 C-1.20845858 425.99460832 -1.21969412 420.84722529 -1.22992671 415.69982111 C-1.24200166 410.15849763 -1.25977707 404.61719206 -1.27679443 399.07588196 C-1.30917455 388.21003268 -1.33597167 377.34417644 -1.36059722 366.47830708 C-1.38062378 357.65111169 -1.40221967 348.82392157 -1.42493629 339.99673271 C-1.47863365 319.07151116 -1.53109983 298.14628785 -1.57690716 277.2210474 C-1.57837444 276.55131102 -1.57984172 275.88157463 -1.58135347 275.19154321 C-1.5887868 271.79674971 -1.59620432 268.40195618 -1.60361841 265.00716264 C-1.6050914 264.33289864 -1.60656439 263.65863465 -1.60808203 262.96393841 C-1.61106068 261.6004115 -1.61403797 260.23688458 -1.6170139 258.87335766 C-1.66338744 237.65260891 -1.71789097 216.43189415 -1.77856445 195.21118164 C-1.84666407 171.39093752 -1.90801121 147.5706889 -1.95981437 123.75040239 C-1.98741453 111.13006769 -2.01813705 98.509758 -2.05682945 85.88945198 C-2.0897092 75.1458914 -2.11572892 64.40234192 -2.13268574 53.65874393 C-2.14154584 48.17201261 -2.15370564 42.68533912 -2.17449379 37.19863892 C-2.19341521 32.18329914 -2.20321741 27.1680303 -2.20551727 22.15265613 C-2.20799771 20.33098541 -2.21391948 18.50931572 -2.22349032 16.68766845 C-2.23593359 14.22580428 -2.2362282 11.76424033 -2.2332716 9.30235386 C-2.23984412 8.58272959 -2.24641665 7.86310533 -2.25318834 7.12167427 C-2.22829615 2.22829615 -2.22829615 2.22829615 0 0 Z " fill="#6283AE" transform="translate(5,3)"/>
<path d="M0 0 C0.99 0 1.98 0 3 0 C3.33 86.13 3.66 172.26 4 261 C50.53 261.495 50.53 261.495 98 262 C98 262.33 98 262.66 98 263 C85.64809568 263.04626496 73.29621186 263.08183941 60.94423866 263.10362434 C55.209214 263.11407805 49.47424845 263.12826612 43.73925781 263.15087891 C38.20851431 263.1725508 32.67782781 263.18455666 27.14704514 263.18975449 C25.03304522 263.19346043 22.91904855 263.20069682 20.80507278 263.21146011 C17.85256365 263.22589992 14.90029245 263.2279811 11.94775391 263.22705078 C11.0666243 263.23424133 10.18549469 263.24143188 9.27766418 263.24884033 C3.22810432 263.22810432 3.22810432 263.22810432 1 261 C0.75160301 259.09088743 0.75160301 259.09088743 0.75390434 256.70900536 C0.7479312 255.34973303 0.7479312 255.34973303 0.74183738 253.96300066 C0.74766307 252.96107073 0.75348875 251.9591408 0.75949097 250.92684937 C0.75778212 249.86750045 0.75607327 248.80815154 0.75431263 247.71670115 C0.7510011 244.14358624 0.76204879 240.5706564 0.77294922 236.99755859 C0.77351297 234.44557194 0.77319747 231.89358497 0.77206421 229.34159851 C0.7716078 223.83530673 0.77730472 218.32907525 0.78853989 212.82279587 C0.8047736 204.86159086 0.8100007 196.90040879 0.81251587 188.93918903 C0.81689632 176.02357399 0.83021491 163.10798416 0.84912109 150.19238281 C0.86747084 137.64388149 0.88163177 125.09538702 0.89013672 112.546875 C0.89066217 111.77376859 0.89118761 111.00066218 0.89172898 110.20412831 C0.894339 106.32579517 0.89686643 102.44746198 0.89935279 98.56912875 C0.9200962 66.37940084 0.95533124 34.18970391 1 2 C0.34 1.67 -0.32 1.34 -1 1 C-0.67 0.67 -0.34 0.34 0 0 Z " fill="#88A6C3" transform="translate(434,195)"/>
<path d="M0 0 C2.4375 0.375 2.4375 0.375 5 1 C5.33 1.66 5.66 2.32 6 3 C4.68 2.67 3.36 2.34 2 2 C2 87.14 2 172.28 2 260 C1.67 260 1.34 260 1 260 C0.81148473 247.60443897 0.64901262 235.20859596 0.5 222.8125 C0.48812275 221.82540417 0.4762455 220.83830833 0.46400833 219.82130051 C-0.10152173 172.06921662 -0.08455798 124.31719242 -0.0625 76.5625 C-0.06207577 75.61713898 -0.06165154 74.67177796 -0.06121445 73.69776964 C-0.05000598 49.13183689 -0.02968645 24.56591728 0 0 Z " fill="#BCC9DB" transform="translate(101,195)"/>
<path d="M0 0 C11.70615034 5.96583144 11.70615034 5.96583144 16 11 C13.03 10.505 13.03 10.505 10 10 C10 9.01 10 8.02 10 7 C7.69 6.67 5.38 6.34 3 6 C2.67 9.96 2.34 13.92 2 18 C1.67 18 1.34 18 1 18 C0.67 124.59 0.34 231.18 0 341 C-0.33 341 -0.66 341 -1 341 C-1.17316369 297.84748718 -1.33582383 254.69494617 -1.48431293 211.54234103 C-1.50183552 206.45270626 -1.51944546 201.36307179 -1.53710938 196.2734375 C-1.54062461 195.26014371 -1.54413985 194.24684993 -1.5477616 193.20285027 C-1.60495691 176.77596701 -1.66923495 160.34911866 -1.736111 143.92227228 C-1.80452823 127.07832051 -1.86537934 110.23435378 -1.91914403 93.39034879 C-1.95258459 82.98902228 -1.99199149 72.58775299 -2.03892837 62.18647848 C-2.07051046 55.06281588 -2.09477165 47.93915229 -2.11317255 40.81544353 C-2.12402286 36.69981195 -2.13819965 32.58425962 -2.16103554 28.46867561 C-2.18184218 24.70603256 -2.19352325 20.94347921 -2.19772999 17.18078201 C-2.20241993 15.16411063 -2.21706818 13.14747015 -2.2319895 11.13084853 C-2.2314908 9.94599533 -2.2309921 8.76114213 -2.23047829 7.54038429 C-2.23427549 6.5113422 -2.23807269 5.4823001 -2.24198496 4.42207491 C-2 2 -2 2 0 0 Z " fill="#5170A5" transform="translate(5,3)"/>
<path d="M0 0 C1.32 0.66 2.64 1.32 4 2 C3.43327072 2.17778992 2.86654144 2.35557983 2.28263855 2.53875732 C-4.84143851 5.09790112 -10.83620669 8.52551083 -15 15 C-18.93371201 26.80339847 -17.15234329 41.07767862 -16.76758194 53.30371857 C-16.6336912 58.22967052 -16.61088093 63.15601334 -16.57885742 68.08349609 C-16.50864418 76.77383691 -16.35731281 85.46002852 -16.16372585 94.14841652 C-15.91233947 105.6181128 -15.84553947 117.08658396 -15.82852173 128.55895996 C-15.81285256 131.55753049 -15.76243238 134.55375342 -15.70385742 137.55175781 C-15.68369954 139.31835505 -15.6638968 141.0849564 -15.64453125 142.8515625 C-15.6206131 143.62132416 -15.59669495 144.39108582 -15.572052 145.18417358 C-15.5546069 148.79851949 -15.87538328 150.80409555 -17.8347168 153.88427734 C-20 156 -20 156 -23 158 C-23.99 157.67 -24.98 157.34 -26 157 C-24.7934375 156.4121875 -24.7934375 156.4121875 -23.5625 155.8125 C-20.76935262 154.23051809 -20.76935262 154.23051809 -20.1875 151.3125 C-20.125625 150.549375 -20.06375 149.78625 -20 149 C-19.67 149 -19.34 149 -19 149 C-19 103.79 -19 58.58 -19 12 C-17.68 12.33 -16.36 12.66 -15 13 C-14.67 11.68 -14.34 10.36 -14 9 C-13.01 9 -12.02 9 -11 9 C-11 8.34 -11 7.68 -11 7 C-9.68 7 -8.36 7 -7 7 C-6.9071875 6.071875 -6.9071875 6.071875 -6.8125 5.125 C-6 3 -6 3 -3.5 1.8125 C-2.675 1.544375 -1.85 1.27625 -1 1 C-0.67 0.67 -0.34 0.34 0 0 Z " fill="#7190BC" transform="translate(315,272)"/>
<path d="M0 0 C0 104.94 0 209.88 0 318 C-0.33 318 -0.66 318 -1 318 C-1 214.38 -1 110.76 -1 4 C-2.65 4.33 -4.3 4.66 -6 5 C-3.74193548 0 -3.74193548 0 0 0 Z " fill="#15407E" transform="translate(533,5)"/>
<path d="M0 0 C4.75 1.875 4.75 1.875 7 3 C7 3.66 7 4.32 7 5 C7.99 5 8.98 5 10 5 C10 5.66 10 6.32 10 7 C10.99 7 11.98 7 13 7 C13.33 19.54 13.66 32.08 14 45 C16.97 44.01 19.94 43.02 23 42 C24.32 42 25.64 42 27 42 C27 41.34 27 40.68 27 40 C32.11873111 35.52285371 37.33390155 34.16973862 44 34 C42.94907163 39.9736981 41.65186844 46.02343419 38 51 C35.8671875 52.22265625 35.8671875 52.22265625 34 53 C34 53.33 34 53.66 34 54 C32.02 54 30.04 54 28 54 C29.62339805 52.29115995 31.29319053 50.62553283 33 49 C33.66 49 34.32 49 35 49 C35.2475 48.319375 35.495 47.63875 35.75 46.9375 C37.24107978 43.43346252 39.09056284 40.29494339 41 37 C39.27239583 37.86380209 37.54482109 38.72766308 35.81738281 39.59179688 C34.3511058 40.32460882 32.88430488 41.05637338 31.41699219 41.78710938 C28.21529893 43.38299544 25.02258004 44.98820571 21.8515625 46.64453125 C20.99304688 47.09183594 20.13453125 47.53914063 19.25 48 C18.14398438 48.5878125 18.14398438 48.5878125 17.015625 49.1875 C15 50 15 50 11 50 C11 36.8 11 23.6 11 10 C9.68 9.34 8.36 8.68 7 8 C5.40300403 6.97940324 3.81981317 5.93693244 2.25 4.875 C1.45078125 4.33617187 0.6515625 3.79734375 -0.171875 3.2421875 C-0.77515625 2.83226562 -1.3784375 2.42234375 -2 2 C-1.34 1.34 -0.68 0.68 0 0 Z " fill="#456BA3" transform="translate(228,276)"/>
<path d="M0 0 C-1.40354413 3.50886032 -2.64365823 4.4267148 -6 6 C-6.99 7.485 -6.99 7.485 -8 9 C-8.99 9 -9.98 9 -11 9 C-11 9.66 -11 10.32 -11 11 C-11.66 11 -12.32 11 -13 11 C-13.33 11.66 -13.66 12.32 -14 13 C-16.90259811 14.3749149 -18.76138705 15 -22 15 C-22.12375 15.556875 -22.2475 16.11375 -22.375 16.6875 C-23 19 -23 19 -24.02246094 20.98022461 C-25.48734953 25.50550108 -25.28496222 29.90160531 -25.265625 34.62890625 C-25.26753845 35.65555893 -25.2694519 36.68221161 -25.27142334 37.73997498 C-25.27278194 39.90599819 -25.26910826 42.07202963 -25.26074219 44.23803711 C-25.25002727 47.5540594 -25.26065432 50.86954128 -25.2734375 54.18554688 C-25.27211606 56.29166786 -25.269554 58.39778851 -25.265625 60.50390625 C-25.26967346 61.49564346 -25.27372192 62.48738068 -25.27789307 63.50917053 C-25.27158875 64.43370529 -25.26528442 65.35824005 -25.25878906 66.31079102 C-25.25719788 67.1217775 -25.25560669 67.93276398 -25.25396729 68.76832581 C-24.97390205 71.22932923 -24.22934154 72.86710882 -23 75 C-24.65 74.67 -26.3 74.34 -28 74 C-28.19399941 66.70458593 -28.37131062 59.40890204 -28.53710938 52.11279297 C-28.59545272 49.63158013 -28.65759433 47.15045355 -28.72363281 44.66943359 C-28.81797657 41.10009466 -28.89858792 37.53066696 -28.9765625 33.9609375 C-29.00875885 32.85446869 -29.0409552 31.74799988 -29.0741272 30.60800171 C-29.27384572 20.30489888 -29.27384572 20.30489888 -27 16 C-24.80102539 14.06542969 -24.80102539 14.06542969 -22.09765625 12.421875 C-21.12505859 11.81859375 -20.15246094 11.2153125 -19.15039062 10.59375 C-18.13138672 9.9853125 -17.11238281 9.376875 -16.0625 8.75 C-14.53979492 7.81414062 -14.53979492 7.81414062 -12.98632812 6.859375 C-11.10516021 5.70403163 -9.21959907 4.55578997 -7.32836914 3.41699219 C-1.71364576 0 -1.71364576 0 0 0 Z " fill="#2C558D" transform="translate(246,198)"/>
<path d="M0 0 C0.99 0 1.98 0 3 0 C3 38.61 3 77.22 3 117 C2.67 117 2.34 117 2 117 C0.79794114 93.78759897 0.87908601 70.5885379 0.93133545 47.3526001 C0.94173758 42.22270122 0.94616849 37.0927971 0.95117188 31.96289062 C0.96175808 21.97524704 0.97872582 11.98762615 1 2 C0.34 1.67 -0.32 1.34 -1 1 C-0.67 0.67 -0.34 0.34 0 0 Z " fill="#76A0C4" transform="translate(434,195)"/>
<path d="M0 0 C5.75 0.875 5.75 0.875 8 2 C9.22974901 8.50044093 9.05180843 14.90929986 8.87890625 21.5 C8.85529526 22.57628662 8.83168427 23.65257324 8.80735779 24.76147461 C8.73123137 28.17446792 8.64698944 31.58720451 8.5625 35 C8.50922816 37.32420649 8.45648818 39.64842524 8.40429688 41.97265625 C8.27568591 47.64859381 8.14042437 53.32434307 8 59 C6.02 59.495 6.02 59.495 4 60 C3.67 59.34 3.34 58.68 3 58 C3.66 58 4.32 58 5 58 C5.15183439 35.62235694 5.15183439 35.62235694 4.75 13.25 C4.73590088 12.35974121 4.72180176 11.46948242 4.70727539 10.55224609 C4.52625253 5.59167425 4.52625253 5.59167425 1.953125 1.421875 C1.30859375 0.95265625 0.6640625 0.4834375 0 0 Z " fill="#365D96" transform="translate(313,213)"/>
<path d="M0 0 C0.66 0.33 1.32 0.66 2 1 C1.34 1.66 0.68 2.32 0 3 C-0.37207354 5.71615864 -0.37207354 5.71615864 -0.4140625 8.8828125 C-0.45273438 10.04941406 -0.49140625 11.21601563 -0.53125 12.41796875 C-0.5621875 13.64128906 -0.593125 14.86460937 -0.625 16.125 C-0.66367188 17.35605469 -0.70234375 18.58710938 -0.7421875 19.85546875 C-0.8366999 22.90349376 -0.92225494 25.95150862 -1 29 C-0.67 28.34 -0.34 27.68 0 27 C1.4540625 26.5359375 1.4540625 26.5359375 2.9375 26.0625 C6.2680443 25.25255878 6.2680443 25.25255878 8 22 C11.625 21.3125 11.625 21.3125 15 21 C15 20.01 15 19.02 15 18 C16.98 18.33 18.96 18.66 21 19 C21.33 17.68 21.66 16.36 22 15 C22.33 15.33 22.66 15.66 23 16 C23 15.67 23 15.34 23 15 C24.65 15 26.3 15 28 15 C24.51308585 18.89447555 20.4734264 21.41491395 16.0625 24.125 C15.35931641 24.56714844 14.65613281 25.00929688 13.93164062 25.46484375 C4.69899058 31.19306711 4.69899058 31.19306711 0.25 30.6875 C-2 30 -2 30 -3 29 C-3.28153006 24.90288446 -3.23184353 20.79313247 -3.25 16.6875 C-3.270625 15.53314453 -3.29125 14.37878906 -3.3125 13.18945312 C-3.31765625 12.07892578 -3.3228125 10.96839844 -3.328125 9.82421875 C-3.3374707 8.80416748 -3.34681641 7.78411621 -3.35644531 6.7331543 C-2.95319606 3.6411164 -2.06644278 2.28502196 0 0 Z " fill="#5C7FAA" transform="translate(242,427)"/>
<path d="M0 0 C0.99 0.33 1.98 0.66 3 1 C2.67 18.16 2.34 35.32 2 53 C-2.95034379 52.00993124 -5.16734349 50.84292987 -9.25 48.0625 C-10.30703125 47.35222656 -11.3640625 46.64195312 -12.453125 45.91015625 C-15 44 -15 44 -16 42 C-14.20491499 42.42325583 -12.4139717 42.86410735 -10.625 43.3125 C-9.62726563 43.55613281 -8.62953125 43.79976562 -7.6015625 44.05078125 C-5 45 -5 45 -3 48 C-2.01 48.33 -1.02 48.66 0 49 C-0.01474869 48.40087296 -0.02949738 47.80174591 -0.04469299 47.1844635 C-0.1966277 40.97214889 -0.34149393 34.75969852 -0.48217773 28.54711914 C-0.53568563 26.22578716 -0.59102145 23.90449658 -0.64819336 21.58325195 C-0.72985982 18.25481093 -0.80504119 14.92627837 -0.87890625 11.59765625 C-0.90594131 10.55287613 -0.93297638 9.50809601 -0.96083069 8.43165588 C-0.98092697 7.47073532 -1.00102325 6.50981476 -1.02172852 5.51977539 C-1.04171402 4.66928116 -1.06169952 3.81878693 -1.08229065 2.94252014 C-1 1 -1 1 0 0 Z " fill="#6180AB" transform="translate(181,195)"/>
<path d="M0 0 C0.66 0.33 1.32 0.66 2 1 C2 1.99 2 2.98 2 4 C1.01 4 0.02 4 -1 4 C-1.268125 4.598125 -1.53625 5.19625 -1.8125 5.8125 C-3.06893279 8.12698145 -3.90279169 9.40901439 -6 11 C-7.19625 11.33 -8.3925 11.66 -9.625 12 C-10.73875 12.33 -11.8525 12.66 -13 13 C-13.33 13.99 -13.66 14.98 -14 16 C-16.31104818 17.05047644 -18.64583651 18.05007438 -21 19 C-21.66 19.66 -22.32 20.32 -23 21 C-23.99 21 -24.98 21 -26 21 C-26.2475 21.61875 -26.495 22.2375 -26.75 22.875 C-28.2442984 25.41530728 -29.24781851 26.02864183 -32 27 C-36 27 -36 27 -38 26 C-35.92167383 24.51333605 -33.83787914 23.03563956 -31.75 21.5625 C-31.16347656 21.14162109 -30.57695312 20.72074219 -29.97265625 20.28710938 C-24.55746822 16.48430879 -24.55746822 16.48430879 -21 16 C-21 15.34 -21 14.68 -21 14 C-18.83981743 12.47498901 -16.68745074 11.0681387 -14.4375 9.6875 C-13.1515138 8.88153107 -11.86634838 8.07425095 -10.58203125 7.265625 C-9.96279785 6.87697266 -9.34356445 6.48832031 -8.70556641 6.08789062 C-5.71235405 4.17867873 -2.85538219 2.107544 0 0 Z " fill="#5072A2" transform="translate(414,82)"/>
<path d="M0 0 C0 3 0 3 -1.5625 5 C-2.2740625 5.99 -2.2740625 5.99 -3 7 C-2.67 7.99 -2.34 8.98 -2 10 C-2.66 10 -3.32 10 -4 10 C-3.7834375 10.86625 -3.7834375 10.86625 -3.5625 11.75 C-3.04166667 13.83333333 -2.52083333 15.91666667 -2 18 C-6.17048238 18.32593468 -8.3537319 17.56731727 -11.8125 15.25 C-12.60269531 14.73953125 -13.39289063 14.2290625 -14.20703125 13.703125 C-14.79871094 13.14109375 -15.39039063 12.5790625 -16 12 C-16 10.68 -16 9.36 -16 8 C-11.77130036 4.39013445 -8.39033093 3.7119305 -3 3 C-1.07716915 1.58408173 -1.07716915 1.58408173 0 0 Z " fill="#134395" transform="translate(316,150)"/>
<path d="M0 0 C0.66 0.33 1.32 0.66 2 1 C0.57307286 4.43657844 -1.10736024 6.04034922 -4.0625 8.25 C-7.15638105 10.82916666 -8.53481917 12.3940051 -9 16.4375 C-9 17.613125 -9 18.78875 -9 20 C-9.33 20 -9.66 20 -10 20 C-10 16.66666667 -10 13.33333333 -10 10 C-10.33 19.24 -10.66 28.48 -11 38 C-9.02 37.34 -7.04 36.68 -5 36 C-7.15167069 38.47442129 -8.71787754 39.56238367 -12 40 C-14.61395221 37.38604779 -13.23009544 30.2478477 -13.24023438 26.69921875 C-13.24992838 24.64021227 -13.28093283 22.58220893 -13.3125 20.5234375 C-13.31765625 19.22921875 -13.3228125 17.935 -13.328125 16.6015625 C-13.3374707 15.40869629 -13.34681641 14.21583008 -13.35644531 12.98681641 C-13 10 -13 10 -11.60449219 8.08740234 C-10 7 -10 7 -8 7 C-8 6.34 -8 5.68 -8 5 C-6.3203125 3.67578125 -6.3203125 3.67578125 -4.125 2.3125 C-3.40570313 1.85488281 -2.68640625 1.39726562 -1.9453125 0.92578125 C-0.98238281 0.46751953 -0.98238281 0.46751953 0 0 Z " fill="#325799" transform="translate(252,376)"/>
<path d="M0 0 C0.66 0.33 1.32 0.66 2 1 C0.54029818 5.56284415 -3.07321391 6.99825326 -7.0625 9.0625 C-12.1792845 11.40875989 -12.1792845 11.40875989 -15 16 C-16.77734375 17.09765625 -16.77734375 17.09765625 -18.9375 18.0625 C-21.50887099 19.22451702 -22.97683978 19.97683978 -25 22 C-26.64129665 22.78460634 -28.31244879 23.50806441 -30 24.1875 C-30.886875 24.55230469 -31.77375 24.91710937 -32.6875 25.29296875 C-35 26 -35 26 -37 25 C-35.23569031 23.65804628 -33.4633209 22.32668332 -31.6875 21 C-30.20830078 19.88625 -30.20830078 19.88625 -28.69921875 18.75 C-26 17 -26 17 -23 17 C-23 16.34 -23 15.68 -23 15 C-21.6105957 13.88671875 -21.6105957 13.88671875 -19.67578125 12.6875 C-18.97646484 12.25179687 -18.27714844 11.81609375 -17.55664062 11.3671875 C-16.81607422 10.91601562 -16.07550781 10.46484375 -15.3125 10 C-14.59126953 9.54882812 -13.87003906 9.09765625 -13.12695312 8.6328125 C-9.5113361 6.40070555 -6.03535691 4.40083396 -2 3 C-2 2.34 -2 1.68 -2 1 C-1.34 0.67 -0.68 0.34 0 0 Z " fill="#4A6BA2" transform="translate(374,109)"/>
<path d="M0 0 C0.66 0 1.32 0 2 0 C2 0.99 2 1.98 2 3 C0.35 3.66 -1.3 4.32 -3 5 C-3.33 14.24 -3.66 23.48 -4 33 C-3.67 32.34 -3.34 31.68 -3 31 C-1.68 31 -0.36 31 1 31 C1 30.34 1 29.68 1 29 C2.45505358 28.47007308 3.91418127 27.9513211 5.375 27.4375 C6.59316406 27.00244141 6.59316406 27.00244141 7.8359375 26.55859375 C10 26 10 26 12 27 C9.75820623 28.36965208 7.50827662 29.72052808 5.25 31.0625 C4.29867187 31.64741211 4.29867187 31.64741211 3.328125 32.24414062 C-1.50498766 35.08862881 -1.50498766 35.08862881 -4.21582031 34.60327148 C-4.80459961 34.40419189 -5.39337891 34.2051123 -6 34 C-6.14532035 29.43783535 -6.23408477 24.87626638 -6.3125 20.3125 C-6.35439453 19.01892578 -6.39628906 17.72535156 -6.43945312 16.39257812 C-6.45556641 15.14541016 -6.47167969 13.89824219 -6.48828125 12.61328125 C-6.51446533 11.46641846 -6.54064941 10.31955566 -6.56762695 9.13793945 C-5.83124626 5.06710027 -4.09924144 3.63066458 -1 1 C-0.67 0.67 -0.34 0.34 0 0 Z " fill="#889DC4" transform="translate(245,336)"/>
<path d="M0 0 C5.58742949 2.98524602 10.92344043 6.18746893 16.15234375 9.765625 C17.97864114 11.04140486 17.97864114 11.04140486 20 12 C20 12.66 20 13.32 20 14 C21.1446875 14.4021875 21.1446875 14.4021875 22.3125 14.8125 C24.87380884 15.94424112 26.19692938 16.91223401 28 19 C27.34 19.33 26.68 19.66 26 20 C26 19.34 26 18.68 26 18 C25.13375 17.9175 24.2675 17.835 23.375 17.75 C19.51750721 16.89277938 17.24931358 15.18975481 14 13 C12.68 13 11.36 13 10 13 C10 12.34 10 11.68 10 11 C8.02 11.33 6.04 11.66 4 12 C3.67 11.01 3.34 10.02 3 9 C3.66 8.67 4.32 8.34 5 8 C4.2575 7.319375 4.2575 7.319375 3.5 6.625 C2 5 2 5 2 3 C1.34 2.67 0.68 2.34 0 2 C0 1.34 0 0.68 0 0 Z " fill="#164596" transform="translate(38,25)"/>
<path d="M0 0 C0.66 0.33 1.32 0.66 2 1 C0.37660195 2.70884005 -1.29319053 4.37446717 -3 6 C-3.66 6 -4.32 6 -5 6 C-5 6.66 -5 7.32 -5 8 C-5.99 8 -6.98 8 -8 8 C-8.08894531 8.62261719 -8.17789063 9.24523438 -8.26953125 9.88671875 C-9 12 -9 12 -10.63671875 13.01953125 C-11.31347656 13.28121094 -11.99023438 13.54289062 -12.6875 13.8125 C-16.11552133 15.32522116 -17.8492506 16.79769542 -20.0625 19.8125 C-21.48046875 21.6484375 -21.48046875 21.6484375 -23 23 C-26.875 22.9375 -26.875 22.9375 -30 22 C-26.28344472 18.01443691 -22.41802823 15.07979098 -17.8125 12.1875 C-17.18408203 11.78080078 -16.55566406 11.37410156 -15.90820312 10.95507812 C-11.26450893 8 -11.26450893 8 -9 8 C-9 7.34 -9 6.68 -9 6 C-7.03125 4.4921875 -7.03125 4.4921875 -4.5 2.875 C-3.6646875 2.33617187 -2.829375 1.79734375 -1.96875 1.2421875 C-1.3190625 0.83226562 -0.669375 0.42234375 0 0 Z " fill="#42659A" transform="translate(527,6)"/>
<path d="M0 0 C11.70615034 5.96583144 11.70615034 5.96583144 16 11 C13.03 10.505 13.03 10.505 10 10 C10 9.01 10 8.02 10 7 C7.69 6.67 5.38 6.34 3 6 C2.67 9.96 2.34 13.92 2 18 C1.67 18 1.34 18 1 18 C0.67 26.91 0.34 35.82 0 45 C-0.33 45 -0.66 45 -1 45 C-1.19204288 38.91307557 -1.3708004 32.82596325 -1.53710938 26.73828125 C-1.59560506 24.66623402 -1.65776739 22.59428699 -1.72363281 20.52246094 C-1.81753115 17.54901369 -1.8983526 14.57545852 -1.9765625 11.6015625 C-2.00875885 10.67131256 -2.0409552 9.74106262 -2.0741272 8.78262329 C-2.09429901 7.92188202 -2.11447083 7.06114075 -2.13525391 6.17431641 C-2.15746002 5.41486725 -2.17966614 4.65541809 -2.20254517 3.87295532 C-2 2 -2 2 0 0 Z " fill="#5977AC" transform="translate(5,3)"/>
<path d="M0 0 C4.75 1.875 4.75 1.875 7 3 C7 3.66 7 4.32 7 5 C7.99 5 8.98 5 10 5 C10 5.66 10 6.32 10 7 C10.99 7 11.98 7 13 7 C12.67 20.86 12.34 34.72 12 49 C12.99 49.33 13.98 49.66 15 50 C13.68 50 12.36 50 11 50 C11 36.8 11 23.6 11 10 C9.68 9.34 8.36 8.68 7 8 C5.40300403 6.97940324 3.81981317 5.93693244 2.25 4.875 C1.45078125 4.33617187 0.6515625 3.79734375 -0.171875 3.2421875 C-0.77515625 2.83226562 -1.3784375 2.42234375 -2 2 C-1.34 1.34 -0.68 0.68 0 0 Z " fill="#849DC7" transform="translate(228,276)"/>
<path d="M0 0 C3.71710317 1.35643702 6.8054197 3.04660225 10.08203125 5.2578125 C11.01337891 5.88300781 11.94472656 6.50820312 12.90429688 7.15234375 C14.34385742 8.12880859 14.34385742 8.12880859 15.8125 9.125 C16.79154297 9.78371094 17.77058594 10.44242188 18.77929688 11.12109375 C21.18903347 12.74325789 23.59578494 14.36966846 26 16 C23 17 23 17 20 16 C18 14 18 14 17 12 C15.34550895 11.61070799 13.67453799 11.291224 12 11 C9.66237777 10.34853151 7.32809543 9.68473395 5 9 C4.896875 8.360625 4.79375 7.72125 4.6875 7.0625 C4.3471875 6.0415625 4.3471875 6.0415625 4 5 C3.01 4.67 2.02 4.34 1 4 C0.3125 1.9375 0.3125 1.9375 0 0 Z " fill="#4C6BA7" transform="translate(181,121)"/>
<path d="M0 0 C0.33 0 0.66 0 1 0 C1.33 11.55 1.66 23.1 2 35 C3.98 34.34 5.96 33.68 8 33 C10.375 33.375 10.375 33.375 12 34 C9.74035542 37.38946688 8.79270862 37.85336716 5 39 C3.35 39 1.7 39 0 39 C0 26.13 0 13.26 0 0 Z " fill="#3E5E92" transform="translate(240,286)"/>
<path d="M0 0 C2.475 0.495 2.475 0.495 5 1 C5.33 1.66 5.66 2.32 6 3 C4.68 2.67 3.36 2.34 2 2 C2.00523682 2.87624023 2.01047363 3.75248047 2.01586914 4.65527344 C2.03310452 7.96533898 2.0455429 11.27535553 2.05493164 14.58544922 C2.05990212 16.00700644 2.06668084 17.42855872 2.07543945 18.85009766 C2.12801256 27.61434357 1.92025062 36.27266264 1 45 C0.67 45 0.34 45 0 45 C0 30.15 0 15.3 0 0 Z " fill="#92A9C4" transform="translate(101,195)"/>
<path d="M0 0 C1.32 0 2.64 0 4 0 C4.12375 0.639375 4.2475 1.27875 4.375 1.9375 C4.58125 2.618125 4.7875 3.29875 5 4 C5.66 4.33 6.32 4.66 7 5 C6.34 5 5.68 5 5 5 C4.67 6.65 4.34 8.3 4 10 C3.01 9.67 2.02 9.34 1 9 C1 9.99 1 10.98 1 12 C0.34 12 -0.32 12 -1 12 C-0.34 10.02 0.32 8.04 1 6 C-0.01320313 6.52400391 -0.01320313 6.52400391 -1.046875 7.05859375 C-1.93890625 7.51363281 -2.8309375 7.96867187 -3.75 8.4375 C-4.63171875 8.88996094 -5.5134375 9.34242188 -6.421875 9.80859375 C-8.64198566 10.83455398 -10.61444619 11.51508603 -13 12 C-12.67 11.01 -12.34 10.02 -12 9 C-10.00428677 8.32060826 -8.00405227 7.65438441 -6 7 C-5.34 6.01 -4.68 5.02 -4 4 C-3.34 4 -2.68 4 -2 4 C-1.34 2.68 -0.68 1.36 0 0 Z " fill="#486EA6" transform="translate(268,395)"/>
<path d="M0 0 C2.64 0.33 5.28 0.66 8 1 C8.33 1.99 8.66 2.98 9 4 C10.64488784 4.71872541 12.31702948 5.37563437 14 6 C15.96103977 7.16974302 17.89851383 8.37975599 19.8125 9.625 C20.78832031 10.25664062 21.76414062 10.88828125 22.76953125 11.5390625 C23.50558594 12.02117187 24.24164063 12.50328125 25 13 C24.67 13.99 24.34 14.98 24 16 C19.90973251 14.53865213 16.54123903 12.53964183 12.9375 10.125 C11.91527344 9.44695312 10.89304687 8.76890625 9.83984375 8.0703125 C7.28043271 6.204442 5.20051953 4.26203943 3 2 C2.01 1.34 1.02 0.68 0 0 Z " fill="#496C9F" transform="translate(101,194)"/>
<path d="M0 0 C3.66066937 1.34284425 6.73623844 2.98972933 9.9765625 5.15234375 C10.894375 5.76400391 11.8121875 6.37566406 12.7578125 7.00585938 C13.70398438 7.64330078 14.65015625 8.28074219 15.625 8.9375 C16.57890625 9.57107422 17.5328125 10.20464844 18.515625 10.85742188 C26.22660797 16.02160836 26.22660797 16.02160836 29 19 C28.34 19.33 27.68 19.66 27 20 C27 19.34 27 18.68 27 18 C25.68 18 24.36 18 23 18 C22.67 17.34 22.34 16.68 22 16 C19.71337496 14.95342931 17.38429746 14.08142847 15.03125 13.1953125 C13 12 13 12 12.21875 9.8671875 C12.1465625 9.25101563 12.074375 8.63484375 12 8 C11.38511719 7.98582031 10.77023438 7.97164063 10.13671875 7.95703125 C7.66787494 7.8113419 5.40216767 7.59628276 3 7 C0.93095946 4.55477027 0 3.20908881 0 0 Z " fill="#4F6EA4" transform="translate(139,93)"/>
<path d="M0 0 C-1.40354413 3.50886032 -2.64365823 4.4267148 -6 6 C-6.99 7.485 -6.99 7.485 -8 9 C-8.99 9 -9.98 9 -11 9 C-11 9.66 -11 10.32 -11 11 C-11.66 11 -12.32 11 -13 11 C-13.33 11.66 -13.66 12.32 -14 13 C-15.99609375 13.88671875 -15.99609375 13.88671875 -18.4375 14.6875 C-19.24058594 14.95949219 -20.04367188 15.23148438 -20.87109375 15.51171875 C-23 16 -23 16 -25 15 C-19.55348622 11.32576452 -14.06784625 7.71035497 -8.5625 4.125 C-7.63993408 3.51700562 -7.63993408 3.51700562 -6.69873047 2.89672852 C-2.22913736 0 -2.22913736 0 0 0 Z " fill="#4B6BA5" transform="translate(246,198)"/>
<path d="M0 0 C0.99 0.33 1.98 0.66 3 1 C3 1.66 3 2.32 3 3 C1.5234375 4.19140625 1.5234375 4.19140625 -0.625 5.5625 C-1.43066406 6.08199219 -2.23632812 6.60148438 -3.06640625 7.13671875 C-4.03449219 7.75160156 -5.00257813 8.36648437 -6 9 C-7.23882927 9.79732625 -8.47707791 10.59555514 -9.71484375 11.39453125 C-13.13884458 13.6032419 -16.56827779 15.80330726 -20 18 C-20.33 17.01 -20.66 16.02 -21 15 C-20.01 15 -19.02 15 -18 15 C-17.95875 14.401875 -17.9175 13.80375 -17.875 13.1875 C-17 11 -17 11 -13.9375 9.25 C-12.968125 8.8375 -11.99875 8.425 -11 8 C-11 7.67 -11 7.34 -11 7 C-9.35 7 -7.7 7 -6 7 C-5.938125 6.38125 -5.87625 5.7625 -5.8125 5.125 C-5 3 -5 3 -2.4375 1.75 C-1.633125 1.5025 -0.82875 1.255 0 1 C0 0.67 0 0.34 0 0 Z " fill="#4A72A2" transform="translate(385,226)"/>
<path d="M0 0 C0 0.66 0 1.32 0 2 C-1.11375 2.45375 -2.2275 2.9075 -3.375 3.375 C-6.96199008 4.72465986 -6.96199008 4.72465986 -9 7 C-9.99 7 -10.98 7 -12 7 C-12.2475 7.61875 -12.495 8.2375 -12.75 8.875 C-14.2442984 11.41530728 -15.24781851 12.02864183 -18 13 C-22 13 -22 13 -24 12 C-7.72327044 0 -7.72327044 0 0 0 Z " fill="#39619E" transform="translate(400,96)"/>
<path d="M0 0 C2.05078125 0.03255208 4.1015625 0.06510417 6.15234375 0.09765625 C6.82421875 1.8828125 6.82421875 1.8828125 7.15234375 4.09765625 C6.04296875 5.84375 6.04296875 5.84375 4.40234375 7.53515625 C1.89411016 10.24613389 -0.01777737 12.87358394 -1.84765625 16.09765625 C-3.41015625 18.41015625 -3.41015625 18.41015625 -4.84765625 20.09765625 C-5.50765625 20.09765625 -6.16765625 20.09765625 -6.84765625 20.09765625 C-6.84765625 20.75765625 -6.84765625 21.41765625 -6.84765625 22.09765625 C-8.49765625 22.09765625 -10.14765625 22.09765625 -11.84765625 22.09765625 C-9.63416249 19.79902812 -7.5049767 17.8497604 -4.91015625 15.97265625 C-0.770455 12.63350791 1.05829348 7.86949648 3.15234375 3.09765625 C1.83234375 3.42765625 0.51234375 3.75765625 -0.84765625 4.09765625 C-0.84765625 3.43765625 -0.84765625 2.77765625 -0.84765625 2.09765625 C-1.50765625 1.76765625 -2.16765625 1.43765625 -2.84765625 1.09765625 C-1.84765625 0.09765625 -1.84765625 0.09765625 0 0 Z " fill="#7A9AC2" transform="translate(265.84765625,353.90234375)"/>
<path d="M0 0 C1.4394414 2.8788828 0.54254392 5.03150562 -0.2734375 8.0234375 C-1.30875244 10.83993943 -2.53133489 12.30720107 -5 14 C-7.75 14.25 -7.75 14.25 -10 14 C-10 14.66 -10 15.32 -10 16 C-11.65 16 -13.3 16 -15 16 C-15 15.34 -15 14.68 -15 14 C-13.1015625 12.4921875 -13.1015625 12.4921875 -10.625 10.875 C-9.81289063 10.33617187 -9.00078125 9.79734375 -8.1640625 9.2421875 C-6 8 -6 8 -4 8 C-3.566875 7.13375 -3.566875 7.13375 -3.125 6.25 C-2.08333333 4.16666667 -1.04166667 2.08333333 0 0 Z " fill="#4D71A4" transform="translate(266,407)"/>
<path d="M0 0 C1.32 0.66 2.64 1.32 4 2 C-1.28 5.63 -6.56 9.26 -12 13 C-12.66 11.68 -13.32 10.36 -14 9 C-13.01 9 -12.02 9 -11 9 C-11 8.34 -11 7.68 -11 7 C-9.68 7 -8.36 7 -7 7 C-6.938125 6.38125 -6.87625 5.7625 -6.8125 5.125 C-6 3 -6 3 -3.5 1.8125 C-2.675 1.544375 -1.85 1.27625 -1 1 C-0.67 0.67 -0.34 0.34 0 0 Z " fill="#5573A4" transform="translate(315,272)"/>
<path d="M0 0 C6.72505349 4.24872538 13.40375316 8.55364102 20 13 C18.68 13.33 17.36 13.66 16 14 C16 13.34 16 12.68 16 12 C14.948125 12.12375 14.948125 12.12375 13.875 12.25 C9.97875396 11.911196 7.99745277 10.45246136 5 8 C4.125 5.75 4.125 5.75 4 4 C3.01 4 2.02 4 1 4 C0.67 2.68 0.34 1.36 0 0 Z " fill="#42619E" transform="translate(85,56)"/>
<path d="M0 0 C7.65247179 3.27963077 15.2668836 7.8958081 21 14 C19.35 14 17.7 14 16 14 C16 13.01 16 12.02 16 11 C14.4221875 10.87625 14.4221875 10.87625 12.8125 10.75 C8.71267873 9.94347778 6.92278322 8.92278322 4 6 C4 5.34 4 4.68 4 4 C3.34 4 2.68 4 2 4 C2 3.34 2 2.68 2 2 C0.68 1.67 -0.64 1.34 -2 1 C-1.34 0.67 -0.68 0.34 0 0 Z " fill="#637DAF" transform="translate(269,182)"/>
<path d="M0 0 C0.66 0.33 1.32 0.66 2 1 C1.34 2.32 0.68 3.64 0 5 C-0.99 5 -1.98 5 -3 5 C-3.33 5.99 -3.66 6.98 -4 8 C-7.53247374 10.40208215 -11.90187897 11.04377176 -16 12 C-11.53122354 6.91484058 -6.00190775 3.11210031 0 0 Z " fill="#456BA1" transform="translate(495,28)"/>
<path d="M0 0 C0.33 0 0.66 0 1 0 C1.14288284 6.35374934 1.28524624 12.70751016 1.42724609 19.0612793 C1.47562857 21.22339136 1.52413057 23.38550076 1.57275391 25.54760742 C1.6425661 28.6528251 1.71195039 31.75805209 1.78125 34.86328125 C1.80312378 35.83211746 1.82499756 36.80095367 1.84753418 37.79914856 C1.86755493 38.6998558 1.88757568 39.60056305 1.90820312 40.52856445 C1.92596802 41.32132278 1.94373291 42.11408112 1.96203613 42.93086243 C1.99303408 44.62033799 2 46.31024009 2 48 C1.01 48.495 1.01 48.495 0 49 C0 32.83 0 16.66 0 0 Z " fill="#194481" transform="translate(357,199)"/>
<path d="M0 0 C0 0.99 0 1.98 0 3 C-0.99 3 -1.98 3 -3 3 C-3.33 4.65 -3.66 6.3 -4 8 C-3.401875 8.061875 -2.80375 8.12375 -2.1875 8.1875 C0.87143458 9.3236757 1.55041099 11.17330142 3 14 C-1.11454254 12.54780852 -4.5695421 10.71245508 -8 8 C-8 6.68 -8 5.36 -8 4 C-2.88888889 0 -2.88888889 0 0 0 Z " fill="#5D79A8" transform="translate(308,154)"/>
<path d="M0 0 C0 0.99 0 1.98 0 3 C-2.28703308 4.19725883 -4.57884862 5.38297018 -6.875 6.5625 C-7.52597656 6.90474609 -8.17695313 7.24699219 -8.84765625 7.59960938 C-10.53529857 8.46082891 -12.26579593 9.23686703 -14 10 C-14.66 9.67 -15.32 9.34 -16 9 C-16 8.34 -16 7.68 -16 7 C-14.68 7 -13.36 7 -12 7 C-12 6.34 -12 5.68 -12 5 C-10.390625 3.7109375 -10.390625 3.7109375 -8.25 2.375 C-7.55390625 1.92898438 -6.8578125 1.48296875 -6.140625 1.0234375 C-4 0 -4 0 0 0 Z " fill="#3C639B" transform="translate(267,311)"/>
<path d="M0 0 C4.17038028 1.65241483 6.84582394 2.84582394 10 6 C11.3921875 6.4640625 11.3921875 6.4640625 12.8125 6.9375 C16.35450651 8.11816884 18.97430538 9.83878956 22 12 C19.3333581 13.33332095 17.83319697 12.67102033 15 12 C14.67 10.68 14.34 9.36 14 8 C13.34 8 12.68 8 12 8 C12 8.66 12 9.32 12 10 C9.43573501 8.90102929 7.96654483 7.96330723 6.0625 5.875 C4.12211906 3.73247996 4.12211906 3.73247996 1.25 3.75 C0.13625 3.87375 0.13625 3.87375 -1 4 C-0.67 2.68 -0.34 1.36 0 0 Z " fill="#194591" transform="translate(8,7)"/>
<path d="M0 0 C0 0.66 0 1.32 0 2 C1.32 1.67 2.64 1.34 4 1 C4.33 2.32 4.66 3.64 5 5 C1.77208445 7.1519437 0.71599191 7.20086443 -3 7 C-3.33 6.34 -3.66 5.68 -4 5 C-4.99 4.34 -5.98 3.68 -7 3 C-2.25 0 -2.25 0 0 0 Z " fill="#0E45A5" transform="translate(251,423)"/>
<path d="M0 0 C1.32 0.33 2.64 0.66 4 1 C2.06745228 3.0245738 0.36841312 4.42105792 -2 6 C-2.99 6 -3.98 6 -5 6 C-4.67 14.91 -4.34 23.82 -4 33 C-4.66 33 -5.32 33 -6 33 C-6.04939662 29.04903022 -6.08571755 25.0981797 -6.10986328 21.14697266 C-6.12488107 19.1408864 -6.15028981 17.13488676 -6.17578125 15.12890625 C-6.18544922 13.24365234 -6.18544922 13.24365234 -6.1953125 11.3203125 C-6.20578613 10.15773926 -6.21625977 8.99516602 -6.22705078 7.79736328 C-6 5 -6 5 -4 3 C-2.68 3 -1.36 3 0 3 C0 2.01 0 1.02 0 0 Z " fill="#143C81" transform="translate(247,336)"/>
<path d="M0 0 C0 0.66 0 1.32 0 2 C-0.99 2 -1.98 2 -3 2 C-3.33 3.32 -3.66 4.64 -4 6 C-5.98 6.33 -7.96 6.66 -10 7 C-10.33 7.99 -10.66 8.98 -11 10 C-11.99 10 -12.98 10 -14 10 C-14.66 11.32 -15.32 12.64 -16 14 C-17.65 14 -19.3 14 -21 14 C-18.09638794 10.88409555 -15.12455671 8.66301765 -11.5 6.4375 C-8.83928707 4.79648337 -6.25512789 3.19718512 -3.78125 1.28515625 C-2 0 -2 0 0 0 Z " fill="#6A85B6" transform="translate(267,184)"/>
<path d="M0 0 C1.81618856 1.11903546 3.62785526 2.24541284 5.4375 3.375 C6.95150391 4.31472656 6.95150391 4.31472656 8.49609375 5.2734375 C11 7 11 7 12 9 C10.35 9.33 8.7 9.66 7 10 C6.67 9.34 6.34 8.68 6 8 C3.97536745 7.34786708 3.97536745 7.34786708 2 7 C2 6.34 2 5.68 2 5 C1.01 5 0.02 5 -1 5 C-0.67 3.35 -0.34 1.7 0 0 Z " fill="#3B5F9E" transform="translate(169,112)"/>
<path d="M0 0 C2.97 0 5.94 0 9 0 C10.32 2.97 11.64 5.94 13 9 C7.97290493 7.42903279 3.97133531 4.38006951 0 1 C0 0.67 0 0.34 0 0 Z " fill="#4E70A6" transform="translate(316,171)"/>
<path d="M0 0 C0.33 0 0.66 0 1 0 C1.33 9.24 1.66 18.48 2 28 C3.98 27.34 5.96 26.68 8 26 C5.84832931 28.47442129 4.28212246 29.56238367 1 30 C0 29 0 29 -0.11352539 26.22436523 C-0.10828857 25.01466064 -0.10305176 23.80495605 -0.09765625 22.55859375 C-0.09443359 21.25341797 -0.09121094 19.94824219 -0.08789062 18.60351562 C-0.07953401 17.2148431 -0.07106905 15.82617123 -0.0625 14.4375 C-0.05748666 13.04492344 -0.05292347 11.65234519 -0.04882812 10.25976562 C-0.03699434 6.8398013 -0.0205088 3.41992156 0 0 Z " fill="#AEBEDC" transform="translate(239,386)"/>
<path d="M0 0 C0.33 0 0.66 0 1 0 C1.33 4.62 1.66 9.24 2 14 C2.99 14 3.98 14 5 14 C5 12.68 5 11.36 5 10 C6.32 10 7.64 10 9 10 C9 10.66 9 11.32 9 12 C8.01 12 7.02 12 6 12 C5.938125 12.78375 5.87625 13.5675 5.8125 14.375 C5.4103125 15.674375 5.4103125 15.674375 5 17 C2.4375 18.3125 2.4375 18.3125 0 19 C0.495 17.515 0.495 17.515 1 16 C0.67 15.67 0.34 15.34 0 15 C-0.07313567 12.46950598 -0.09247527 9.96695163 -0.0625 7.4375 C-0.05798828 6.72658203 -0.05347656 6.01566406 -0.04882812 5.28320312 C-0.03700864 3.52209987 -0.01907263 1.76103964 0 0 Z " fill="#2C559B" transform="translate(358,229)"/>
<path d="M0 0 C-2.28819146 1.50554634 -4.58021169 3.00457043 -6.875 4.5 C-7.85146484 5.14388672 -7.85146484 5.14388672 -8.84765625 5.80078125 C-13.7734375 9 -13.7734375 9 -16 9 C-16 8.01 -16 7.02 -16 6 C-14.68 6 -13.36 6 -12 6 C-11.67 5.01 -11.34 4.02 -11 3 C-7.34443332 -0.16815779 -4.71678807 -1.46383078 0 0 Z " fill="#45699C" transform="translate(214,178)"/>
<path d="M0 0 C0.66 0 1.32 0 2 0 C1.375 2.81640625 1.375 2.81640625 0 6 C-2.75 7.71484375 -2.75 7.71484375 -6 8.9375 C-7.60875 9.56978516 -7.60875 9.56978516 -9.25 10.21484375 C-12 11 -12 11 -14 10 C-12.23569031 8.65804628 -10.4633209 7.32668332 -8.6875 6 C-7.70136719 5.2575 -6.71523438 4.515 -5.69921875 3.75 C-3 2 -3 2 0 2 C0 1.34 0 0.68 0 0 Z " fill="#5A7BA8" transform="translate(351,124)"/>
<path d="M0 0 C0.66 0 1.32 0 2 0 C2.33 0.33 2.66 0.66 3 1 C3.99 0.67 4.98 0.34 6 0 C6 0.99 6 1.98 6 3 C3.91796875 4.60546875 3.91796875 4.60546875 1.1875 6.1875 C0.29417969 6.71730469 -0.59914063 7.24710938 -1.51953125 7.79296875 C-4 9 -4 9 -7 9 C-6.34 7.68 -5.68 6.36 -5 5 C-3.68 5 -2.36 5 -1 5 C-0.67 3.35 -0.34 1.7 0 0 Z " fill="#466B9F" transform="translate(426,196)"/>
<path d="M0 0 C0 0.99 0 1.98 0 3 C-1.65 3.66 -3.3 4.32 -5 5 C-5.33 13.58 -5.66 22.16 -6 31 C-6.33 31 -6.66 31 -7 31 C-7.14509751 26.58367823 -7.23400818 22.16796807 -7.3125 17.75 C-7.35439453 16.49574219 -7.39628906 15.24148438 -7.43945312 13.94921875 C-7.45556641 12.74394531 -7.47167969 11.53867187 -7.48828125 10.296875 C-7.51446533 9.18666992 -7.54064941 8.07646484 -7.56762695 6.93261719 C-7 4 -7 4 -4.59448242 1.60644531 C-2 0 -2 0 0 0 Z " fill="#5876A5" transform="translate(247,336)"/>
<path d="M0 0 C1.65 0 3.3 0 5 0 C5 0.66 5 1.32 5 2 C5.969375 2.04125 6.93875 2.0825 7.9375 2.125 C13.10400494 2.81316152 16.9090346 5.96656307 21 9 C18 10 18 10 15 9 C13 7 13 7 12 5 C10.34550895 4.61070799 8.67453799 4.291224 7 4 C4.66237777 3.34853151 2.32809543 2.68473395 0 2 C0 1.34 0 0.68 0 0 Z " fill="#4163A2" transform="translate(186,128)"/>
<path d="M0 0 C2.64 0.33 5.28 0.66 8 1 C8.33 1.99 8.66 2.98 9 4 C9.99 4 10.98 4 12 4 C12 4.99 12 5.98 12 7 C13.32 7.66 14.64 8.32 16 9 C12.00186567 9 9.58095737 7.13405749 6.3125 5.0625 C5.70599609 4.68931641 5.09949219 4.31613281 4.47460938 3.93164062 C2.96202265 2.98733733 1.47813339 1.99737103 0 1 C0 0.67 0 0.34 0 0 Z " fill="#5677A9" transform="translate(332,182)"/>
<path d="M0 0 C0.33 0 0.66 0 1 0 C1.33 1.65 1.66 3.3 2 5 C5.465 4.505 5.465 4.505 9 4 C8.3125 6.4375 8.3125 6.4375 7 9 C4.5 9.9375 4.5 9.9375 2 10 C0 8 0 8 -0.1953125 6.0546875 C-0.13020833 4.03645833 -0.06510417 2.01822917 0 0 Z " fill="#215094" transform="translate(242,403)"/>
<path d="M0 0 C3.63 2.31 7.26 4.62 11 7 C9 11 9 11 6.375 12.25 C5.59125 12.4975 4.8075 12.745 4 13 C4 12.01 4 11.02 4 10 C4.66 10 5.32 10 6 10 C6.33 8.68 6.66 7.36 7 6 C6.01 6 5.02 6 4 6 C1.8125 4.125 1.8125 4.125 0 2 C0 1.34 0 0.68 0 0 Z " fill="#7894B7" transform="translate(229,152)"/>
<path d="M0 0 C0.66 0.33 1.32 0.66 2 1 C2 1.99 2 2.98 2 4 C1.01 4 0.02 4 -1 4 C-1.268125 4.598125 -1.53625 5.19625 -1.8125 5.8125 C-3.02493496 8.04593283 -3.94652273 9.49938199 -6 11 C-8.1875 10.6875 -8.1875 10.6875 -10 10 C-6.66666667 6.66666667 -3.33333333 3.33333333 0 0 Z " fill="#345CA1" transform="translate(414,82)"/>
<path d="M0 0 C2.475 0.99 2.475 0.99 5 2 C5 2.66 5 3.32 5 4 C5.763125 4.268125 6.52625 4.53625 7.3125 4.8125 C9.87380884 5.94424112 11.19692938 6.91223401 13 9 C12.01 9.495 12.01 9.495 11 10 C11 9.34 11 8.68 11 8 C10.13375 7.9175 9.2675 7.835 8.375 7.75 C4.52265142 6.89392254 2.151781 5.32631454 -1 3 C-0.67 2.01 -0.34 1.02 0 0 Z " fill="#496BA1" transform="translate(53,35)"/>
<path d="M0 0 C0.99 0 1.98 0 3 0 C3 0.66 3 1.32 3 2 C3.66 2.33 4.32 2.66 5 3 C4.34 3 3.68 3 3 3 C2.67 4.65 2.34 6.3 2 8 C1.01 7.67 0.02 7.34 -1 7 C-1 7.99 -1 8.98 -1 10 C-1.66 10 -2.32 10 -3 10 C-2.505 8.6078125 -2.505 8.6078125 -2 7.1875 C-0.85032996 4.07970709 -0.85032996 4.07970709 -1 1 C-0.67 0.67 -0.34 0.34 0 0 Z " fill="#4977B1" transform="translate(270,397)"/>
<path d="M0 0 C4.10958767 1.45044271 7.43258745 3.51110752 11 6 C8.51475096 7.24262452 7.65513738 6.89426128 5 6.25 C4.29875 6.09015625 3.5975 5.9303125 2.875 5.765625 C1 5 1 5 -1 2 C-0.67 1.34 -0.34 0.68 0 0 Z " fill="#4A72A6" transform="translate(307,207)"/>
<path d="M0 0 C0.66 0.33 1.32 0.66 2 1 C0.875 3.4375 0.875 3.4375 -1 6 C-4.0625 6.625 -4.0625 6.625 -7 7 C-7.99 8.485 -7.99 8.485 -9 10 C-10.32 9.67 -11.64 9.34 -13 9 C-11.39612733 7.8745809 -9.79189084 6.74968028 -8.1875 5.625 C-7.29417969 4.99851562 -6.40085937 4.37203125 -5.48046875 3.7265625 C-3.66732122 2.46449761 -1.83811789 1.22541192 0 0 Z " fill="#6885B4" transform="translate(450,58)"/>
<path d="M0 0 C5.43614072 2.7832093 9.93265026 5.40783094 14 10 C13.01 10.495 13.01 10.495 12 11 C12 10.34 12 9.68 12 9 C11.319375 8.95875 10.63875 8.9175 9.9375 8.875 C5.81496347 7.64701039 2.90003829 5.15076207 0 2 C0 1.34 0 0.68 0 0 Z " fill="#527AA6" transform="translate(38,25)"/>
<path d="M0 0 C2.64 0.33 5.28 0.66 8 1 C8.33 1.99 8.66 2.98 9 4 C11.50447516 5.21869929 11.50447516 5.21869929 14 6 C13.34 6.66 12.68 7.32 12 8 C8.0256929 6.67523097 5.84720708 5.03702088 3 2 C2.01 1.34 1.02 0.68 0 0 Z " fill="#3A5C9A" transform="translate(101,194)"/>
<path d="M0 0 C-3.60700972 4.23431576 -8.14586161 6.4692099 -13 9 C-13.33 8.01 -13.66 7.02 -14 6 C-12.68 6 -11.36 6 -10 6 C-9.67 5.01 -9.34 4.02 -9 3 C-6.03848967 0.1442579 -4.06571818 -0.33880985 0 0 Z " fill="#4F72A4" transform="translate(402,218)"/>
<path d="M0 0 C0.886875 0.103125 1.77375 0.20625 2.6875 0.3125 C0.7075 3.2825 0.7075 3.2825 -1.3125 6.3125 C-3.6225 5.9825 -5.9325 5.6525 -8.3125 5.3125 C-4.12788462 0.38942308 -4.12788462 0.38942308 0 0 Z " fill="#3B62A0" transform="translate(505.3125,22.6875)"/>
<path d="M0 0 C1.32 0 2.64 0 4 0 C4 0.66 4 1.32 4 2 C4.66 2 5.32 2 6 2 C6 2.66 6 3.32 6 4 C1.545 4.495 1.545 4.495 -3 5 C-3 4.01 -3 3.02 -3 2 C-2.01 2 -1.02 2 0 2 C0 1.34 0 0.68 0 0 Z " fill="#1B458D" transform="translate(267,184)"/>
<path d="M0 0 C0 0.99 0 1.98 0 3 C-0.61875 3.0825 -1.2375 3.165 -1.875 3.25 C-2.57625 3.4975 -3.2775 3.745 -4 4 C-4.268125 4.66 -4.53625 5.32 -4.8125 6 C-5.204375 6.66 -5.59625 7.32 -6 8 C-9.625 8.75 -9.625 8.75 -13 9 C-4.5 0 -4.5 0 0 0 Z " fill="#6889B1" transform="translate(332,138)"/>
<path d="M0 0 C0.6875 1.8125 0.6875 1.8125 1 4 C-0.33203125 5.48828125 -0.33203125 5.48828125 -2 7 C-2.98628417 9.03077684 -2.98628417 9.03077684 -3.6875 11.1875 C-3.93886719 11.90292969 -4.19023437 12.61835938 -4.44921875 13.35546875 C-4.72185547 14.16951172 -4.72185547 14.16951172 -5 15 C-6.32 14.67 -7.64 14.34 -9 14 C-8.1646875 13.0409375 -8.1646875 13.0409375 -7.3125 12.0625 C-4.43664055 8.25392938 -2.2360513 4.2063424 0 0 Z " fill="#194587" transform="translate(270,359)"/>
<path d="M0 0 C1.67427615 0.92384166 3.33928003 1.86450569 5 2.8125 C6.3921875 3.59560547 6.3921875 3.59560547 7.8125 4.39453125 C8.534375 4.92433594 9.25625 5.45414063 10 6 C10 6.99 10 7.98 10 9 C7.525 8.01 7.525 8.01 5 7 C5 6.34 5 5.68 5 5 C3.68 4.67 2.36 4.34 1 4 C0.67 2.68 0.34 1.36 0 0 Z " fill="#5373A9" transform="translate(67,44)"/>
<path d="M0 0 C2.05078125 0.03255208 4.1015625 0.06510417 6.15234375 0.09765625 C6.83984375 1.91015625 6.83984375 1.91015625 7.15234375 4.09765625 C5.71484375 5.84765625 5.71484375 5.84765625 4.15234375 7.09765625 C3.49234375 5.77765625 2.83234375 4.45765625 2.15234375 3.09765625 C1.16234375 3.09765625 0.17234375 3.09765625 -0.84765625 3.09765625 C-0.84765625 2.76765625 -0.84765625 2.43765625 -0.84765625 2.09765625 C-1.50765625 1.76765625 -2.16765625 1.43765625 -2.84765625 1.09765625 C-1.84765625 0.09765625 -1.84765625 0.09765625 0 0 Z " fill="#4D77B3" transform="translate(265.84765625,353.90234375)"/>
<path d="M0 0 C0 0.66 0 1.32 0 2 C-0.969375 2.28875 -1.93875 2.5775 -2.9375 2.875 C-6.10664203 3.64214682 -6.10664203 3.64214682 -7 6 C-8.65 5.67 -10.3 5.34 -12 5 C-9.68950414 2.24517802 -8.42614128 1.10227391 -4.875 0.25 C-2 0 -2 0 0 0 Z " fill="#18408D" transform="translate(270,440)"/>
<path d="M0 0 C0.66 0.33 1.32 0.66 2 1 C2 1.99 2 2.98 2 4 C0.35 4 -1.3 4 -3 4 C-3.33 4.99 -3.66 5.98 -4 7 C-5.65 7 -7.3 7 -9 7 C-6.25604436 4.05278838 -3.61662784 1.80831392 0 0 Z " fill="#607EB0" transform="translate(317,147)"/>
<path d="M0 0 C4.10958767 1.45044271 7.43258745 3.51110752 11 6 C8 7 8 7 5 6 C5 5.34 5 4.68 5 4 C3.68 4.33 2.36 4.66 1 5 C0.67 3.35 0.34 1.7 0 0 Z " fill="#5170AC" transform="translate(214,143)"/>
<path d="M0 0 C-1 3 -1 3 -3.9375 4.75 C-5.4534375 5.36875 -5.4534375 5.36875 -7 6 C-7.66 5.67 -8.32 5.34 -9 5 C-5.28508772 -1.58552632 -5.28508772 -1.58552632 0 0 Z " fill="#345C97" transform="translate(360,122)"/>
<path d="M0 0 C3.93673644 1.31224548 6.22719294 2.91910327 9 6 C6.36 6 3.72 6 1 6 C0.67 4.02 0.34 2.04 0 0 Z " fill="#4F6FA9" transform="translate(129,86)"/>
<path d="M0 0 C0.6875 1.8125 0.6875 1.8125 1 4 C-0.4375 5.6875 -0.4375 5.6875 -2 7 C-2 7.33 -2 7.66 -2 8 C-3.98 8 -5.96 8 -8 8 C-6.37660195 6.29115995 -4.70680947 4.62553283 -3 3 C-2.34 3 -1.68 3 -1 3 C-0.67 2.01 -0.34 1.02 0 0 Z " fill="#6F90B9" transform="translate(264,322)"/>
<path d="M0 0 C1.65 0 3.3 0 5 0 C1.87378374 3.39417765 -0.56541027 5.6062718 -5 7 C-5 6.01 -5 5.02 -5 4 C-4.01 4 -3.02 4 -2 4 C-1.34 2.68 -0.68 1.36 0 0 Z " fill="#4C6C9D" transform="translate(193,187)"/>
<path d="M0 0 C0.99 0.33 1.98 0.66 3 1 C0.22719294 4.08089673 -2.06326356 5.68775452 -6 7 C-6 6.01 -6 5.02 -6 4 C-3.1875 1.75 -3.1875 1.75 0 0 Z " fill="#5876AB" transform="translate(278,434)"/>
<path d="M0 0 C0.66 0.33 1.32 0.66 2 1 C1.34 2.32 0.68 3.64 0 5 C-1.32 5 -2.64 5 -4 5 C-4 5.66 -4 6.32 -4 7 C-5.32 7 -6.64 7 -8 7 C-8 6.34 -8 5.68 -8 5 C-6.3203125 3.67578125 -6.3203125 3.67578125 -4.125 2.3125 C-3.40570313 1.85488281 -2.68640625 1.39726562 -1.9453125 0.92578125 C-1.30335938 0.62027344 -0.66140625 0.31476563 0 0 Z " fill="#6C89BB" transform="translate(252,376)"/>
<path d="M0 0 C2.31 0.33 4.62 0.66 7 1 C7.33 1.99 7.66 2.98 8 4 C8.66 4 9.32 4 10 4 C10 4.66 10 5.32 10 6 C5.56909529 4.79157144 3.01887244 3.48331435 0 0 Z " fill="#1B458D" transform="translate(344,188)"/>
<path d="M0 0 C0.66 0.33 1.32 0.66 2 1 C1.67 2.32 1.34 3.64 1 5 C0.34 5 -0.32 5 -1 5 C-1.33 5.99 -1.66 6.98 -2 8 C-2.99 8.33 -3.98 8.66 -5 9 C-3.375 2.25 -3.375 2.25 0 0 Z " fill="#3764A2" transform="translate(335,135)"/>
<path d="M0 0 C0.66 0.33 1.32 0.66 2 1 C0.37660195 2.70884005 -1.29319053 4.37446717 -3 6 C-3.66 6 -4.32 6 -5 6 C-5 6.66 -5 7.32 -5 8 C-6.32 8 -7.64 8 -9 8 C-9 7.34 -9 6.68 -9 6 C-7.03125 4.4921875 -7.03125 4.4921875 -4.5 2.875 C-3.6646875 2.33617187 -2.829375 1.79734375 -1.96875 1.2421875 C-1.3190625 0.83226562 -0.669375 0.42234375 0 0 Z " fill="#7390B9" transform="translate(527,6)"/>
<path d="M0 0 C0.33 1.32 0.66 2.64 1 4 C-0.65 4.66 -2.3 5.32 -4 6 C-4.99 5.01 -5.98 4.02 -7 3 C-2.25 0 -2.25 0 0 0 Z " fill="#466EAF" transform="translate(251,423)"/>
<path d="M0 0 C5.445 1.485 5.445 1.485 11 3 C10.67 3.66 10.34 4.32 10 5 C5.27635085 5 3.7011388 3.7758541 0 1 C0 0.67 0 0.34 0 0 Z " fill="#4D6FA3" transform="translate(165,237)"/>
<path d="M0 0 C4.10958767 1.45044271 7.43258745 3.51110752 11 6 C9.375 6.75 9.375 6.75 7 7 C1.288 3.864 1.288 3.864 0 0 Z " fill="#577BB1" transform="translate(290,196)"/>
<path d="M0 0 C0 0.66 0 1.32 0 2 C0.99 2.33 1.98 2.66 3 3 C-4.50769231 3.36923077 -4.50769231 3.36923077 -7 1.5 C-7.33 1.005 -7.66 0.51 -8 0 C-4.71023192 -1.09658936 -3.28696233 -0.79953138 0 0 Z " fill="#315B9C" transform="translate(319,168)"/>
<path d="M0 0 C2.5 1.1875 2.5 1.1875 4.5 3.1875 C4.5 4.1775 4.5 5.1675 4.5 6.1875 C0.56326356 4.87525452 -1.72719294 3.26839673 -4.5 0.1875 C-2.5 -0.8125 -2.5 -0.8125 0 0 Z " fill="#466C9E" transform="translate(230.5,276.8125)"/>
<path d="M0 0 C2.4375 0.375 2.4375 0.375 5 1 C5.33 1.66 5.66 2.32 6 3 C7.64363134 3.72159424 9.31050386 4.39351421 11 5 C9 6 9 6 5.5 5.3125 C2 4 2 4 0.5625 1.875 C0.376875 1.25625 0.19125 0.6375 0 0 Z " fill="#18448C" transform="translate(280,192)"/>
<path d="M0 0 C-1.20381448 2.49361571 -2.45428722 4.68143083 -4 7 C-4.99 6.01 -5.98 5.02 -7 4 C-3.375 0 -3.375 0 0 0 Z " fill="#154592" transform="translate(484,39)"/>
<path d="M0 0 C2.31 0 4.62 0 7 0 C4.47211993 2.79872437 2.79588866 4.45773019 -1 5 C-0.67 3.35 -0.34 1.7 0 0 Z " fill="#5C79AF" transform="translate(282,430)"/>
<path d="M0 0 C1.98 0 3.96 0 6 0 C1.375 4.875 1.375 4.875 -2 6 C-2 4.68 -2 3.36 -2 2 C-1.34 2 -0.68 2 0 2 C0 1.34 0 0.68 0 0 Z " fill="#3C639E" transform="translate(413,206)"/>
<path d="M0 0 C1.98 0 3.96 0 6 0 C5 2 5 2 2.93359375 2.8515625 C1.69802734 3.23441406 1.69802734 3.23441406 0.4375 3.625 C-0.80193359 4.01558594 -0.80193359 4.01558594 -2.06640625 4.4140625 C-2.70449219 4.60742188 -3.34257812 4.80078125 -4 5 C-4 4.01 -4 3.02 -4 2 C-2.68 2 -1.36 2 0 2 C0 1.34 0 0.68 0 0 Z " fill="#5F7FAD" transform="translate(255,316)"/>
<path d="M0 0 C1.32 0.66 2.64 1.32 4 2 C1.69 3.32 -0.62 4.64 -3 6 C-3 5.34 -3 4.68 -3 4 C-3.99 3.67 -4.98 3.34 -6 3 C-5.195625 2.690625 -4.39125 2.38125 -3.5625 2.0625 C-1.10919595 1.23664655 -1.10919595 1.23664655 0 0 Z " fill="#406CA2" transform="translate(315,272)"/>
<path d="M0 0 C0.763125 0.309375 1.52625 0.61875 2.3125 0.9375 C4.18789677 1.67893593 6.08684652 2.36228217 8 3 C8.33 3.99 8.66 4.98 9 6 C2.35384615 4.52307692 2.35384615 4.52307692 0.5625 1.875 C0.376875 1.25625 0.19125 0.6375 0 0 Z " fill="#3E608B" transform="translate(173,241)"/>
<path d="M0 0 C5.75 0.875 5.75 0.875 8 2 C7.67 3.65 7.34 5.3 7 7 C5.83040013 6.02433888 4.66438823 5.044375 3.5 4.0625 C2.8503125 3.51722656 2.200625 2.97195312 1.53125 2.41015625 C1.0259375 1.94480469 0.520625 1.47945312 0 1 C0 0.67 0 0.34 0 0 Z " fill="#32528F" transform="translate(313,213)"/>
<path d="M0 0 C1.31602523 0.61754259 2.62773556 1.24428742 3.9375 1.875 C4.66839844 2.22304687 5.39929688 2.57109375 6.15234375 2.9296875 C8 4 8 4 9 6 C7.68 6 6.36 6 5 6 C4.67 5.34 4.34 4.68 4 4 C2.68 4 1.36 4 0 4 C0 2.68 0 1.36 0 0 Z " fill="#506FA9" transform="translate(120,80)"/>
<path d="M0 0 C1.32 0.33 2.64 0.66 4 1 C1.64722731 3.72426311 -0.62496331 4.8141763 -4 6 C-4 5.01 -4 4.02 -4 3 C-2.68 3 -1.36 3 0 3 C0 2.01 0 1.02 0 0 Z " fill="#1A4688" transform="translate(247,336)"/>
<path d="M0 0 C-2.31 1.65 -4.62 3.3 -7 5 C-7.66 4.67 -8.32 4.34 -9 4 C-8.67 3.34 -8.34 2.68 -8 2 C-7.34 2 -6.68 2 -6 2 C-6 1.34 -6 0.68 -6 0 C-4 -1 -4 -1 0 0 Z " fill="#4E70A5" transform="translate(223,172)"/>
<path d="M0 0 C0.66 0.33 1.32 0.66 2 1 C1.67 2.32 1.34 3.64 1 5 C-1.31 5 -3.62 5 -6 5 C-4.06745228 2.9754262 -2.36841312 1.57894208 0 0 Z " fill="#5F7CAE" transform="translate(468,46)"/>
<path d="M0 0 C0.66 0 1.32 0 2 0 C2.33 1.32 2.66 2.64 3 4 C5.31 4.33 7.62 4.66 10 5 C10 5.66 10 6.32 10 7 C6.7 6.01 3.4 5.02 0 4 C0 2.68 0 1.36 0 0 Z " fill="#1B428D" transform="translate(20,15)"/>
<path d="M0 0 C0 0.99 0 1.98 0 3 C-0.66 3 -1.32 3 -2 3 C-2 3.66 -2 4.32 -2 5 C-3.65 5 -5.3 5 -7 5 C-7 4.34 -7 3.68 -7 3 C-2.61538462 0 -2.61538462 0 0 0 Z " fill="#5977AD" transform="translate(258,418)"/>
<path d="M0 0 C0.66 0.33 1.32 0.66 2 1 C-0.25 3.5625 -0.25 3.5625 -3 6 C-4.32 5.67 -5.64 5.34 -7 5 C-4.69 3.35 -2.38 1.7 0 0 Z " fill="#789AC4" transform="translate(254,330)"/>
<path d="M0 0 C0.33 0 0.66 0 1 0 C1.16820551 1.93736701 1.33451095 3.87489906 1.5 5.8125 C1.5928125 6.89144531 1.685625 7.97039062 1.78125 9.08203125 C2 12 2 12 2 15 C1.01 15.495 1.01 15.495 0 16 C0 10.72 0 5.44 0 0 Z " fill="#22437A" transform="translate(357,232)"/>
<path d="M0 0 C2.8125 0.1875 2.8125 0.1875 6 1 C7.875 3.5625 7.875 3.5625 9 6 C5.06326356 4.68775452 2.77280706 3.08089673 0 0 Z " fill="#5676B0" transform="translate(147,225)"/>
<path d="M0 0 C2.64 0.33 5.28 0.66 8 1 C7.67 2.32 7.34 3.64 7 5 C4.11562221 3.70700306 2.12780579 2.34058637 0 0 Z " fill="#446A9D" transform="translate(140,220)"/>
<path d="M0 0 C0.66 0.33 1.32 0.66 2 1 C1.01 2.485 1.01 2.485 0 4 C-0.66 4 -1.32 4 -2 4 C-2 4.66 -2 5.32 -2 6 C-3.65 6 -5.3 6 -7 6 C-4.74259377 3.66475218 -2.7194239 1.81294927 0 0 Z " fill="#5370AC" transform="translate(477,40)"/>
<path d="M0 0 C3.93673644 1.31224548 6.22719294 2.91910327 9 6 C6.69 5.67 4.38 5.34 2 5 C1.34 3.35 0.68 1.7 0 0 Z " fill="#607EB3" transform="translate(21,14)"/>
<path d="M0 0 C1.65 0.33 3.3 0.66 5 1 C4.67 1.99 4.34 2.98 4 4 C1.4375 5.1875 1.4375 5.1875 -1 6 C-0.67 4.02 -0.34 2.04 0 0 Z " fill="#466CA4" transform="translate(257,445)"/>
<path d="M0 0 C2.1875 0.3125 2.1875 0.3125 4 1 C3.01 1.33 2.02 1.66 1 2 C1 2.99 1 3.98 1 5 C0.01 5.33 -0.98 5.66 -2 6 C-2.33 5.01 -2.66 4.02 -3 3 C-1.75 1.4375 -1.75 1.4375 0 0 Z " fill="#1F4A8E" transform="translate(244,427)"/>
<path d="M0 0 C2.64 0.66 5.28 1.32 8 2 C8.33 3.32 8.66 4.64 9 6 C5.06326356 4.68775452 2.77280706 3.08089673 0 0 Z " fill="#7391BD" transform="translate(156,231)"/>
<path d="M0 0 C-0.625 1.9375 -0.625 1.9375 -2 4 C-5.125 4.75 -5.125 4.75 -8 5 C-3.16129032 0 -3.16129032 0 0 0 Z " fill="#6F89B0" transform="translate(246,198)"/>
<path d="M0 0 C-1 3 -1 3 -3.0625 4.1875 C-3.701875 4.455625 -4.34125 4.72375 -5 5 C-5 4.34 -5 3.68 -5 3 C-5.66 2.67 -6.32 2.34 -7 2 C-4 0 -4 0 0 0 Z " fill="#365F9C" transform="translate(465,51)"/>
<path d="M0 0 C0.66 0.33 1.32 0.66 2 1 C1.67 2.65 1.34 4.3 1 6 C0.34 6 -0.32 6 -1 6 C-1 6.66 -1 7.32 -1 8 C-1.66 8 -2.32 8 -3 8 C-2.67 6.35 -2.34 4.7 -2 3 C-1.34 3 -0.68 3 0 3 C0 2.01 0 1.02 0 0 Z " fill="#184385" transform="translate(269,404)"/>
<path d="M0 0 C0.66 0.33 1.32 0.66 2 1 C2 1.99 2 2.98 2 4 C0.02 4.99 -1.96 5.98 -4 7 C-4 6.01 -4 5.02 -4 4 C-3.01 4 -2.02 4 -1 4 C-0.67 2.68 -0.34 1.36 0 0 Z " fill="#436599" transform="translate(368,237)"/>
<path d="M0 0 C3.125 0.375 3.125 0.375 6 1 C5.67 1.99 5.34 2.98 5 4 C2.69 3.34 0.38 2.68 -2 2 C-1.34 1.34 -0.68 0.68 0 0 Z " fill="#1D4693" transform="translate(133,91)"/>
<path d="M0 0 C0.66 0.33 1.32 0.66 2 1 C1.67 1.99 1.34 2.98 1 4 C-0.65 4.33 -2.3 4.66 -4 5 C-2.25 1.125 -2.25 1.125 0 0 Z " fill="#134688" transform="translate(454,57)"/>
<path d="M0 0 C1.65 0 3.3 0 5 0 C4.67 1.65 4.34 3.3 4 5 C3.34 5 2.68 5 2 5 C2 4.34 2 3.68 2 3 C1.34 3 0.68 3 0 3 C0 2.01 0 1.02 0 0 Z " fill="#5583BC" transform="translate(267,310)"/>
<path d="M0 0 C2.25 0.25 2.25 0.25 4 1 C2.8125 2.5 2.8125 2.5 1 4 C-1.6875 4.1875 -1.6875 4.1875 -4 4 C-2.25 1.9375 -2.25 1.9375 0 0 Z " fill="#4C7BAB" transform="translate(236,203)"/>
<path d="M0 0 C-0.66 1.32 -1.32 2.64 -2 4 C-3.65 4 -5.3 4 -7 4 C-3.375 0 -3.375 0 0 0 Z " fill="#4870A1" transform="translate(253,194)"/>
<path d="M0 0 C2.4375 0.375 2.4375 0.375 5 1 C5.33 1.66 5.66 2.32 6 3 C4.68 2.67 3.36 2.34 2 2 C2 3.32 2 4.64 2 6 C1.34 6 0.68 6 0 6 C0 4.02 0 2.04 0 0 Z " fill="#94AECD" transform="translate(101,195)"/>
<path d="M0 0 C1.67542976 0.28604898 3.34385343 0.61781233 5 1 C2.82575883 3.50037734 1.26954202 4.43628586 -2 5 C-1.125 1.125 -1.125 1.125 0 0 Z " fill="#18448D" transform="translate(430,193)"/>
<path d="M0 0 C0.99 0.33 1.98 0.66 3 1 C-1.75 4.875 -1.75 4.875 -4 6 C-4 4.68 -4 3.36 -4 2 C-2.68 2 -1.36 2 0 2 C0 1.34 0 0.68 0 0 Z " fill="#5972AB" transform="translate(230,164)"/>
<path d="M0 0 C3.37503669 1.1858237 5.64722731 2.27573689 8 5 C5.36 4.34 2.72 3.68 0 3 C0 2.01 0 1.02 0 0 Z " fill="#5476AD" transform="translate(181,121)"/>
</svg>
